<svg width="222" height="222" viewBox="0 0 222 222" fill="none" xmlns="http://www.w3.org/2000/svg">
<g filter="url(#filter0_b)">
<path d="M59.5679 133.65L118.804 133.66" stroke="url(#paint0_linear)" stroke-width="3"/>
<path d="M141.764 133.663L201 133.673" stroke="url(#paint1_linear)" stroke-width="3"/>
</g>
<g filter="url(#filter1_b)">
<path d="M21 133.643L80.236 133.653" stroke="url(#paint2_linear)" stroke-width="3"/>
<path d="M103.196 133.657L162.432 133.667" stroke="url(#paint3_linear)" stroke-width="3"/>
</g>
<g filter="url(#filter2_i)">
<circle cx="111" cy="111" r="111" fill="white"/>
</g>
<circle cx="111" cy="111" r="106.5" stroke="#719C7B" stroke-width="9"/>
<path d="M57.756 139.414C57.756 139.27 57.786 139.174 57.846 139.126C57.906 139.066 58.056 139.03 58.296 139.018C58.548 139.006 59.034 139 59.754 139H63.066V147.64C63.066 147.772 63.036 147.862 62.976 147.91C62.916 147.946 62.724 147.97 62.4 147.982C62.076 147.994 61.632 148 61.068 148V140.872H59.754V147.64C59.754 147.772 59.724 147.862 59.664 147.91C59.604 147.946 59.412 147.97 59.088 147.982C58.764 147.994 58.32 148 57.756 148V139.414ZM67.0243 148.18C66.3163 148.18 65.7643 148.066 65.3683 147.838C64.9723 147.598 64.6723 147.142 64.4683 146.47C64.2763 145.798 64.1803 144.802 64.1803 143.482C64.1803 140.374 65.1763 138.82 67.1683 138.82C67.8403 138.82 68.3743 138.958 68.7703 139.234C69.1783 139.498 69.4783 139.96 69.6703 140.62C69.8743 141.28 69.9763 142.21 69.9763 143.41C69.9763 145.102 69.7303 146.32 69.2383 147.064C68.7583 147.808 68.0203 148.18 67.0243 148.18ZM67.0783 146.524C67.2223 146.524 67.3423 146.458 67.4383 146.326C67.5343 146.182 67.6123 145.888 67.6723 145.444C67.7443 144.988 67.7803 144.328 67.7803 143.464C67.7803 142.588 67.7623 141.946 67.7263 141.538C67.6903 141.118 67.6243 140.836 67.5283 140.692C67.4323 140.548 67.2883 140.476 67.0963 140.476C66.8683 140.476 66.6883 140.68 66.5563 141.088C66.4363 141.496 66.3763 142.288 66.3763 143.464C66.3763 144.364 66.4003 145.036 66.4483 145.48C66.5083 145.912 66.5863 146.194 66.6823 146.326C66.7783 146.458 66.9103 146.524 67.0783 146.524ZM71.2812 148.09C70.9452 148.09 70.6812 147.994 70.4892 147.802C70.2972 147.61 70.2012 147.316 70.2012 146.92C70.2012 146.836 70.2132 146.698 70.2372 146.506C70.6692 146.506 70.9872 146.308 71.1912 145.912C71.3952 145.504 71.5392 144.862 71.6232 143.986C71.7192 143.11 71.8212 141.64 71.9292 139.576C71.9412 139.396 71.9712 139.27 72.0192 139.198C72.0792 139.126 72.2232 139.078 72.4512 139.054C72.6792 139.018 73.0692 139 73.6212 139H76.6812V147.64C76.6812 147.784 76.6572 147.874 76.6092 147.91C76.5612 147.946 76.3692 147.97 76.0332 147.982C75.6972 147.994 75.2352 148 74.6472 148V140.656H73.8012C73.7052 142.492 73.5612 143.95 73.3692 145.03C73.1892 146.098 72.9312 146.878 72.5952 147.37C72.2592 147.85 71.8212 148.09 71.2812 148.09ZM81.0794 146.236C81.6554 146.236 82.2914 146.068 82.9874 145.732C83.0954 146.092 83.1494 146.536 83.1494 147.064C83.1494 147.412 82.9034 147.688 82.4114 147.892C81.9314 148.084 81.3254 148.18 80.5934 148.18C79.6934 148.18 79.0034 147.874 78.5234 147.262C78.0434 146.638 77.8034 145.528 77.8034 143.932C77.8034 142.564 77.9414 141.502 78.2174 140.746C78.5054 139.99 78.8774 139.48 79.3334 139.216C79.7894 138.952 80.3354 138.82 80.9714 138.82C82.5074 138.82 83.2754 139.798 83.2754 141.754C83.2754 142.798 83.1914 143.65 83.0234 144.31C82.3394 144.454 81.2954 144.538 79.8914 144.562C79.9274 145.174 80.0294 145.606 80.1974 145.858C80.3654 146.11 80.6594 146.236 81.0794 146.236ZM80.7194 140.548C80.4434 140.548 80.2394 140.746 80.1074 141.142C79.9874 141.538 79.9154 142.156 79.8914 142.996C80.5634 142.996 81.0134 142.942 81.2414 142.834C81.3014 142.654 81.3314 142.342 81.3314 141.898C81.3314 141.346 81.2894 140.986 81.2054 140.818C81.1214 140.638 80.9594 140.548 80.7194 140.548ZM86.2404 148.18C85.6044 148.18 85.0884 148.078 84.6924 147.874C84.2964 147.67 84.0984 147.388 84.0984 147.028C84.0984 146.896 84.1224 146.722 84.1704 146.506C84.2304 146.29 84.3144 146.068 84.4224 145.84C85.0344 146.26 85.6164 146.47 86.1684 146.47C86.4444 146.47 86.6604 146.392 86.8164 146.236C86.9724 146.08 87.0504 145.78 87.0504 145.336C87.0504 144.94 86.9724 144.652 86.8164 144.472C86.6604 144.292 86.3844 144.202 85.9884 144.202H85.5744C85.4424 144.202 85.3344 144.166 85.2504 144.094C85.1784 144.01 85.1424 143.896 85.1424 143.752V142.618H86.5104C86.6664 142.258 86.7444 141.862 86.7444 141.43C86.7444 141.118 86.6964 140.884 86.6004 140.728C86.5044 140.572 86.3304 140.494 86.0784 140.494C85.6824 140.494 85.2564 140.692 84.8004 141.088C84.4764 140.68 84.3144 140.332 84.3144 140.044C84.3144 139.876 84.3744 139.702 84.4944 139.522C84.6264 139.33 84.8484 139.168 85.1604 139.036C85.4724 138.892 85.8804 138.82 86.3844 138.82C87.8964 138.82 88.6524 139.492 88.6524 140.836C88.6524 141.676 88.3824 142.402 87.8424 143.014C88.2744 143.266 88.5804 143.572 88.7604 143.932C88.9524 144.28 89.0484 144.736 89.0484 145.3C89.0484 146.2 88.8264 146.908 88.3824 147.424C87.9384 147.928 87.2244 148.18 86.2404 148.18ZM90.1701 139.36C90.1701 139.228 90.1941 139.144 90.2421 139.108C90.3021 139.06 90.4941 139.03 90.8181 139.018C91.1541 139.006 91.6161 139 92.2041 139V142.636H93.5181V139.36C93.5181 139.228 93.5481 139.144 93.6081 139.108C93.6801 139.06 93.8781 139.03 94.2021 139.018C94.5381 139.006 94.9881 139 95.5521 139V147.64C95.5521 147.772 95.5221 147.862 95.4621 147.91C95.4141 147.946 95.2221 147.97 94.8861 147.982C94.5621 147.994 94.1061 148 93.5181 148V144.346H92.2041V147.64C92.2041 147.772 92.1741 147.862 92.1141 147.91C92.0661 147.946 91.8741 147.97 91.5381 147.982C91.2021 147.994 90.7461 148 90.1701 148V139.36ZM97.4123 139.9C97.4123 139.588 97.4423 139.378 97.5023 139.27C97.5743 139.162 97.7303 139.09 97.9703 139.054C98.2103 139.018 98.6603 139 99.3203 139V142.312H99.9323C100.928 142.312 101.654 142.492 102.11 142.852C102.566 143.212 102.794 143.866 102.794 144.814C102.794 146.038 102.476 146.878 101.84 147.334C101.204 147.778 100.274 148 99.0503 148H97.4123V139.9ZM99.6803 146.416C99.9563 146.416 100.166 146.296 100.31 146.056C100.454 145.816 100.526 145.432 100.526 144.904C100.526 144.568 100.496 144.322 100.436 144.166C100.376 144.01 100.292 143.914 100.184 143.878C100.076 143.83 99.9203 143.806 99.7163 143.806C99.6083 143.806 99.5183 143.812 99.4463 143.824C99.3743 143.836 99.3323 143.842 99.3203 143.842V146.398C99.3323 146.398 99.3683 146.404 99.4283 146.416C99.4883 146.416 99.5723 146.416 99.6803 146.416ZM103.658 139.882C103.658 139.582 103.712 139.378 103.82 139.27C103.928 139.15 104.108 139.078 104.36 139.054C104.612 139.018 105.056 139 105.692 139V147.64C105.692 147.772 105.662 147.862 105.602 147.91C105.542 147.946 105.344 147.97 105.008 147.982C104.672 147.994 104.222 148 103.658 148V139.882ZM109.943 146.236C110.519 146.236 111.155 146.068 111.851 145.732C111.959 146.092 112.013 146.536 112.013 147.064C112.013 147.412 111.767 147.688 111.275 147.892C110.795 148.084 110.189 148.18 109.457 148.18C108.557 148.18 107.867 147.874 107.387 147.262C106.907 146.638 106.667 145.528 106.667 143.932C106.667 142.564 106.805 141.502 107.081 140.746C107.369 139.99 107.741 139.48 108.197 139.216C108.653 138.952 109.199 138.82 109.835 138.82C111.371 138.82 112.139 139.798 112.139 141.754C112.139 142.798 112.055 143.65 111.887 144.31C111.203 144.454 110.159 144.538 108.755 144.562C108.791 145.174 108.893 145.606 109.061 145.858C109.229 146.11 109.523 146.236 109.943 146.236ZM109.583 140.548C109.307 140.548 109.103 140.746 108.971 141.142C108.851 141.538 108.779 142.156 108.755 142.996C109.427 142.996 109.877 142.942 110.105 142.834C110.165 142.654 110.195 142.342 110.195 141.898C110.195 141.346 110.153 140.986 110.069 140.818C109.985 140.638 109.823 140.548 109.583 140.548ZM115.799 139.414C115.799 139.27 115.829 139.174 115.889 139.126C115.949 139.066 116.099 139.03 116.339 139.018C116.591 139.006 117.077 139 117.797 139H121.109V147.64C121.109 147.772 121.079 147.862 121.019 147.91C120.959 147.946 120.767 147.97 120.443 147.982C120.119 147.994 119.675 148 119.111 148V140.872H117.797V147.64C117.797 147.772 117.767 147.862 117.707 147.91C117.647 147.946 117.455 147.97 117.131 147.982C116.807 147.994 116.363 148 115.799 148V139.414ZM123.429 151.546C123.069 151.546 122.817 151.486 122.673 151.366C122.529 151.246 122.457 151.012 122.457 150.664V139.522C122.805 139.306 123.213 139.138 123.681 139.018C124.161 138.886 124.641 138.82 125.121 138.82C126.069 138.82 126.789 139.084 127.281 139.612C127.773 140.14 128.019 141.094 128.019 142.474C128.019 143.998 127.917 145.18 127.713 146.02C127.509 146.86 127.233 147.43 126.885 147.73C126.549 148.03 126.141 148.18 125.661 148.18C125.133 148.18 124.731 148.066 124.455 147.838V151.384C124.167 151.492 123.825 151.546 123.429 151.546ZM124.977 146.416C125.133 146.416 125.265 146.332 125.373 146.164C125.493 145.984 125.589 145.612 125.661 145.048C125.745 144.484 125.787 143.668 125.787 142.6C125.787 142.024 125.757 141.592 125.697 141.304C125.649 141.004 125.571 140.8 125.463 140.692C125.355 140.584 125.205 140.53 125.013 140.53C124.821 140.53 124.635 140.602 124.455 140.746V146.074C124.623 146.302 124.797 146.416 124.977 146.416ZM131.606 148.18C130.898 148.18 130.346 148.066 129.95 147.838C129.554 147.598 129.254 147.142 129.05 146.47C128.858 145.798 128.762 144.802 128.762 143.482C128.762 140.374 129.758 138.82 131.75 138.82C132.422 138.82 132.956 138.958 133.352 139.234C133.76 139.498 134.06 139.96 134.252 140.62C134.456 141.28 134.558 142.21 134.558 143.41C134.558 145.102 134.312 146.32 133.82 147.064C133.34 147.808 132.602 148.18 131.606 148.18ZM131.66 146.524C131.804 146.524 131.924 146.458 132.02 146.326C132.116 146.182 132.194 145.888 132.254 145.444C132.326 144.988 132.362 144.328 132.362 143.464C132.362 142.588 132.344 141.946 132.308 141.538C132.272 141.118 132.206 140.836 132.11 140.692C132.014 140.548 131.87 140.476 131.678 140.476C131.45 140.476 131.27 140.68 131.138 141.088C131.018 141.496 130.958 142.288 130.958 143.464C130.958 144.364 130.982 145.036 131.03 145.48C131.09 145.912 131.168 146.194 131.264 146.326C131.36 146.458 131.492 146.524 131.66 146.524ZM136.616 150.826C136.268 150.826 136.01 150.814 135.842 150.79C135.686 150.766 135.578 150.712 135.518 150.628C135.458 150.544 135.428 150.418 135.428 150.25V146.128H136.166C136.418 145.708 136.61 144.988 136.742 143.968C136.886 142.936 136.988 141.478 137.048 139.594C137.06 139.402 137.084 139.27 137.12 139.198C137.156 139.114 137.24 139.06 137.372 139.036C137.504 139.012 137.732 139 138.056 139H141.746V146.128H142.646V150.25C142.646 150.418 142.616 150.544 142.556 150.628C142.496 150.712 142.382 150.766 142.214 150.79C142.058 150.814 141.8 150.826 141.44 150.826C141.26 150.142 141.128 149.614 141.044 149.242C140.972 148.882 140.918 148.468 140.882 148H137.174C137.138 148.468 137.078 148.882 136.994 149.242C136.922 149.614 136.796 150.142 136.616 150.826ZM139.748 146.128V140.656H138.812C138.74 142.288 138.644 143.494 138.524 144.274C138.404 145.042 138.242 145.66 138.038 146.128H139.748ZM144.632 151.528C144.284 151.528 144.014 151.432 143.822 151.24C143.63 151.048 143.534 150.754 143.534 150.358C143.534 150.274 143.546 150.136 143.57 149.944C144.014 149.944 144.344 149.836 144.56 149.62C144.788 149.404 144.98 148.99 145.136 148.378L143.138 139.522C143.114 139.378 143.102 139.294 143.102 139.27C143.102 139.174 143.15 139.108 143.246 139.072C143.354 139.036 143.564 139.018 143.876 139.018C144.2 139.006 144.608 139 145.1 139L145.64 142.15C145.748 142.798 145.844 143.506 145.928 144.274C146.012 145.042 146.066 145.54 146.09 145.768C146.102 145.54 146.144 145.048 146.216 144.292C146.3 143.524 146.384 142.81 146.468 142.15L146.828 139.558C146.852 139.354 146.9 139.222 146.972 139.162C147.056 139.09 147.218 139.048 147.458 139.036C147.71 139.012 148.208 139 148.952 139L146.936 148.414C146.696 149.53 146.396 150.328 146.036 150.808C145.688 151.288 145.22 151.528 144.632 151.528ZM154.295 148.036C153.911 148.036 153.485 148.018 153.017 147.982L152.873 145.66C152.837 145.192 152.789 144.85 152.729 144.634C152.681 144.418 152.585 144.268 152.441 144.184C152.309 144.088 152.111 144.04 151.847 144.04H151.757V147.676C151.757 147.796 151.727 147.874 151.667 147.91C151.607 147.946 151.415 147.97 151.091 147.982C150.779 147.994 150.347 148 149.795 148V139.324C149.795 139.204 149.825 139.126 149.885 139.09C149.945 139.054 150.131 139.03 150.443 139.018C150.767 139.006 151.205 139 151.757 139V142.276H151.937C152.357 142.276 152.615 142.006 152.711 141.466L153.179 139.108C153.599 139.012 154.001 138.964 154.385 138.964C154.673 138.964 154.877 138.982 154.997 139.018C155.117 139.054 155.177 139.126 155.177 139.234L155.141 139.396L154.529 141.772C154.373 142.324 154.091 142.72 153.683 142.96C154.031 143.14 154.307 143.452 154.511 143.896C154.727 144.328 154.865 144.856 154.925 145.48L155.087 147.676C155.087 147.82 155.039 147.916 154.943 147.964C154.847 148.012 154.631 148.036 154.295 148.036ZM157.397 140.692H155.687C155.687 140.14 155.693 139.762 155.705 139.558C155.717 139.342 155.747 139.198 155.795 139.126C155.855 139.042 155.957 139 156.101 139H161.069C161.069 139.552 161.063 139.936 161.051 140.152C161.039 140.368 161.003 140.512 160.943 140.584C160.895 140.656 160.805 140.692 160.673 140.692H159.395V147.64C159.395 147.772 159.365 147.862 159.305 147.91C159.257 147.946 159.065 147.97 158.729 147.982C158.405 147.994 157.961 148 157.397 148V140.692ZM161.977 139.9C161.977 139.588 162.007 139.378 162.067 139.27C162.139 139.162 162.295 139.09 162.535 139.054C162.775 139.018 163.225 139 163.885 139V142.312H164.497C165.493 142.312 166.219 142.492 166.675 142.852C167.131 143.212 167.359 143.866 167.359 144.814C167.359 146.038 167.041 146.878 166.405 147.334C165.769 147.778 164.839 148 163.615 148H161.977V139.9ZM164.245 146.416C164.521 146.416 164.731 146.296 164.875 146.056C165.019 145.816 165.091 145.432 165.091 144.904C165.091 144.568 165.061 144.322 165.001 144.166C164.941 144.01 164.857 143.914 164.749 143.878C164.641 143.83 164.485 143.806 164.281 143.806C164.173 143.806 164.083 143.812 164.011 143.824C163.939 143.836 163.897 143.842 163.885 143.842V146.398C163.897 146.398 163.933 146.404 163.993 146.416C164.053 146.416 164.137 146.416 164.245 146.416ZM168.223 139.882C168.223 139.582 168.277 139.378 168.385 139.27C168.493 139.15 168.673 139.078 168.925 139.054C169.177 139.018 169.621 139 170.257 139V147.64C170.257 147.772 170.227 147.862 170.167 147.91C170.107 147.946 169.909 147.97 169.573 147.982C169.237 147.994 168.787 148 168.223 148V139.882Z" fill="#719C7B"/>
<g filter="url(#filter3_b)">
<path d="M79.6607 101.831C80.4295 103.238 83.1018 103.259 85.6295 101.878C88.1572 100.497 89.583 98.2364 88.8142 96.8294C88.0454 95.4225 85.373 95.4017 82.8454 96.783C80.3177 98.1642 78.8919 100.424 79.6607 101.831Z" fill="url(#paint4_linear)"/>
<path d="M89.1112 94.0248C87.7897 93.076 88.1831 90.2668 89.9899 87.7502C91.7967 85.2336 94.3326 83.9625 95.6541 84.9113C96.9756 85.86 96.5822 88.6693 94.7754 91.1859C92.9686 93.7025 90.4327 94.9735 89.1112 94.0248Z" fill="url(#paint5_linear)"/>
<path d="M66.9078 101.033C66.9057 102.66 69.3458 103.982 72.3579 103.985C75.3699 103.989 77.8134 102.674 77.8155 101.047C77.8176 99.4201 75.3776 98.0982 72.3655 98.0943C69.3534 98.0904 66.9099 99.406 66.9078 101.033Z" fill="url(#paint6_linear)"/>
<path d="M73.5207 95.9217C74.5816 97.7987 78.4073 97.6439 82.0657 95.5761C85.7241 93.5082 87.8298 90.3103 86.7688 88.4334C85.7079 86.5565 81.8822 86.7112 78.2238 88.7791C74.5654 90.8469 72.4598 94.0448 73.5207 95.9217Z" fill="url(#paint7_linear)"/>
<path d="M68.1069 82.809C68.9495 84.2997 71.8683 84.2445 74.6262 82.6856C77.3841 81.1268 78.9367 78.6546 78.0941 77.1638C77.2514 75.6731 74.3326 75.7283 71.5748 77.2872C68.8169 78.846 67.2642 81.3182 68.1069 82.809Z" fill="url(#paint8_linear)"/>
<path d="M63.9916 76.23C64.8342 77.7208 68.0552 77.4948 71.1857 75.7253C74.3163 73.9558 76.1711 71.3128 75.3284 69.822C74.4858 68.3313 71.2649 68.5573 68.1343 70.3268C65.0037 72.0963 63.149 74.7393 63.9916 76.23Z" fill="url(#paint9_linear)"/>
<path d="M92.1741 80.0275C93.1807 81.1079 92.6833 83.2073 91.0632 84.7165C89.4432 86.2258 87.3139 86.5734 86.3074 85.4929C85.3008 84.4125 85.7982 82.3131 87.4182 80.8039C89.0383 79.2947 91.1676 78.9471 92.1741 80.0275Z" fill="url(#paint10_linear)"/>
<path d="M63.2528 96.3747C63.6594 97.7942 65.7145 98.4508 67.843 97.8412C69.9716 97.2316 71.3676 95.5866 70.961 94.167C70.5544 92.7475 68.4993 92.0909 66.3707 92.7005C64.2422 93.3101 62.8462 94.9551 63.2528 96.3747Z" fill="url(#paint11_linear)"/>
<path d="M77.496 86.2199C78.5919 87.3731 81.2331 86.6423 83.3954 84.5875C85.5576 82.5327 86.422 79.9322 85.3261 78.779C84.2302 77.6258 81.589 78.3566 79.4268 80.4114C77.2646 82.4662 76.4001 85.0667 77.496 86.2199Z" fill="url(#paint12_linear)"/>
<path d="M76.3605 86.8614C76.7833 88.3951 74.7949 90.281 71.9194 91.0738C69.0438 91.8665 66.37 91.2659 65.9472 89.7322C65.5244 88.1986 67.5127 86.3127 70.3883 85.5199C73.2638 84.7272 75.9377 85.3278 76.3605 86.8614Z" fill="url(#paint13_linear)"/>
<path d="M80.9483 67.8546C82.6965 68.323 83.6228 70.5346 83.0173 72.7943C82.4118 75.0541 80.5038 76.5062 78.7557 76.0378C77.0075 75.5694 76.0812 73.3578 76.6866 71.0981C77.2921 68.8383 79.2001 67.3862 80.9483 67.8546Z" fill="url(#paint14_linear)"/>
<path d="M58.8726 79.7334C58.0369 81.3388 59.0417 83.5158 61.1168 84.5961C63.1919 85.6763 65.5516 85.2506 66.3873 83.6453C67.2229 82.0399 66.2182 79.8628 64.143 78.7826C62.0679 77.7024 59.7083 78.1281 58.8726 79.7334Z" fill="url(#paint15_linear)"/>
<path d="M85.8192 77.9622C87.3728 78.6407 89.0517 78.2302 89.5693 77.0453C90.0869 75.8603 89.2471 74.3496 87.6935 73.6711C86.14 72.9925 84.461 73.403 83.9434 74.5879C83.4259 75.7729 84.2657 77.2836 85.8192 77.9622Z" fill="url(#paint16_linear)"/>
<path d="M64.9757 90.4188C64.7588 92.0773 63.537 93.285 62.2468 93.1163C60.9565 92.9475 60.0864 91.4662 60.3033 89.8077C60.5202 88.1492 61.742 86.9415 63.0322 87.1102C64.3225 87.279 65.1926 88.7603 64.9757 90.4188Z" fill="url(#paint17_linear)"/>
<path d="M65.108 63.4484C63.4499 64.3552 61.5995 64.1648 60.9752 63.0232C60.3508 61.8815 61.1889 60.2209 62.847 59.3141C64.5052 58.4072 66.3555 58.5976 66.9799 59.7393C67.6042 60.8809 66.7662 62.5416 65.108 63.4484Z" fill="url(#paint18_linear)"/>
<path d="M65.6302 65.421C67.5038 64.4072 69.4994 64.4668 70.0877 65.554C70.676 66.6412 69.634 68.3443 67.7605 69.3581C65.887 70.3718 63.8913 70.3122 63.303 69.225C62.7148 68.1378 63.7567 66.4347 65.6302 65.421Z" fill="url(#paint19_linear)"/>
<path d="M71.803 65.8832C70.0118 64.5905 69.2817 62.5424 70.1721 61.3086C71.0625 60.0749 73.2364 60.1227 75.0276 61.4154C76.8187 62.7081 77.5489 64.7563 76.6585 65.99C75.768 67.2238 73.5942 67.176 71.803 65.8832Z" fill="url(#paint20_linear)"/>
<path d="M62.0026 70.5131C61.8362 68.5205 60.4722 67.0077 58.956 67.1343C57.4397 67.2609 56.3454 68.9789 56.5118 70.9715C56.6781 72.9642 58.0422 74.477 59.5584 74.3504C61.0746 74.2238 62.169 72.5058 62.0026 70.5131Z" fill="url(#paint21_linear)"/>
<path d="M79.6607 101.831C80.4295 103.238 83.1018 103.259 85.6295 101.878C88.1572 100.497 89.583 98.2364 88.8142 96.8294C88.0454 95.4225 85.373 95.4017 82.8454 96.783C80.3177 98.1642 78.8919 100.424 79.6607 101.831Z" fill="url(#paint22_linear)"/>
<path d="M89.1112 94.0248C87.7897 93.076 88.1831 90.2668 89.9899 87.7502C91.7967 85.2336 94.3326 83.9625 95.6541 84.9113C96.9756 85.86 96.5822 88.6693 94.7754 91.1859C92.9686 93.7025 90.4327 94.9735 89.1112 94.0248Z" fill="url(#paint23_linear)"/>
<path d="M66.9078 101.033C66.9057 102.66 69.3458 103.982 72.3579 103.985C75.3699 103.989 77.8134 102.674 77.8155 101.047C77.8176 99.4201 75.3776 98.0982 72.3655 98.0943C69.3534 98.0904 66.9099 99.406 66.9078 101.033Z" fill="url(#paint24_linear)"/>
<path d="M73.5207 95.9217C74.5816 97.7987 78.4073 97.6439 82.0657 95.5761C85.7241 93.5082 87.8298 90.3103 86.7688 88.4334C85.7079 86.5565 81.8822 86.7112 78.2238 88.7791C74.5654 90.8469 72.4598 94.0448 73.5207 95.9217Z" fill="url(#paint25_linear)"/>
<path d="M68.1069 82.809C68.9495 84.2997 71.8683 84.2445 74.6262 82.6856C77.3841 81.1268 78.9367 78.6546 78.0941 77.1638C77.2514 75.6731 74.3326 75.7283 71.5748 77.2872C68.8169 78.846 67.2642 81.3182 68.1069 82.809Z" fill="url(#paint26_linear)"/>
<path d="M63.9916 76.23C64.8342 77.7208 68.0552 77.4948 71.1857 75.7253C74.3163 73.9558 76.1711 71.3128 75.3284 69.822C74.4858 68.3313 71.2649 68.5573 68.1343 70.3268C65.0037 72.0963 63.149 74.7393 63.9916 76.23Z" fill="url(#paint27_linear)"/>
<path d="M92.1741 80.0275C93.1807 81.1079 92.6833 83.2073 91.0632 84.7165C89.4432 86.2258 87.3139 86.5734 86.3074 85.4929C85.3008 84.4125 85.7982 82.3131 87.4182 80.8039C89.0383 79.2947 91.1676 78.9471 92.1741 80.0275Z" fill="url(#paint28_linear)"/>
<path d="M63.2528 96.3747C63.6594 97.7942 65.7145 98.4508 67.843 97.8412C69.9716 97.2316 71.3676 95.5866 70.961 94.167C70.5544 92.7475 68.4993 92.0909 66.3707 92.7005C64.2422 93.3101 62.8462 94.9551 63.2528 96.3747Z" fill="url(#paint29_linear)"/>
<path d="M77.496 86.2199C78.5919 87.3731 81.2331 86.6423 83.3954 84.5875C85.5576 82.5327 86.422 79.9322 85.3261 78.779C84.2302 77.6258 81.589 78.3566 79.4268 80.4114C77.2646 82.4662 76.4001 85.0667 77.496 86.2199Z" fill="url(#paint30_linear)"/>
<path d="M76.3605 86.8614C76.7833 88.3951 74.7949 90.281 71.9194 91.0738C69.0438 91.8665 66.37 91.2659 65.9472 89.7322C65.5244 88.1986 67.5127 86.3127 70.3883 85.5199C73.2638 84.7272 75.9377 85.3278 76.3605 86.8614Z" fill="url(#paint31_linear)"/>
<path d="M80.9483 67.8546C82.6965 68.323 83.6228 70.5346 83.0173 72.7943C82.4118 75.0541 80.5038 76.5062 78.7557 76.0378C77.0075 75.5694 76.0812 73.3578 76.6866 71.0981C77.2921 68.8383 79.2001 67.3862 80.9483 67.8546Z" fill="url(#paint32_linear)"/>
<path d="M58.8726 79.7334C58.0369 81.3388 59.0417 83.5158 61.1168 84.5961C63.1919 85.6763 65.5516 85.2506 66.3873 83.6453C67.2229 82.0399 66.2182 79.8628 64.143 78.7826C62.0679 77.7024 59.7083 78.1281 58.8726 79.7334Z" fill="url(#paint33_linear)"/>
<path d="M85.8192 77.9622C87.3728 78.6407 89.0517 78.2302 89.5693 77.0453C90.0869 75.8603 89.2471 74.3496 87.6935 73.6711C86.14 72.9925 84.461 73.403 83.9434 74.5879C83.4259 75.7729 84.2657 77.2836 85.8192 77.9622Z" fill="url(#paint34_linear)"/>
<path d="M64.9757 90.4188C64.7588 92.0773 63.537 93.285 62.2468 93.1163C60.9565 92.9475 60.0864 91.4662 60.3033 89.8077C60.5202 88.1492 61.742 86.9415 63.0322 87.1102C64.3225 87.279 65.1926 88.7603 64.9757 90.4188Z" fill="url(#paint35_linear)"/>
<path d="M65.6302 65.421C67.5038 64.4072 69.4994 64.4668 70.0877 65.554C70.676 66.6412 69.634 68.3443 67.7605 69.3581C65.887 70.3718 63.8913 70.3122 63.303 69.225C62.7148 68.1378 63.7567 66.4347 65.6302 65.421Z" fill="url(#paint36_linear)"/>
<path d="M71.803 65.8832C70.0118 64.5905 69.2817 62.5424 70.1721 61.3086C71.0625 60.0749 73.2364 60.1227 75.0276 61.4154C76.8187 62.7081 77.5489 64.7563 76.6585 65.99C75.768 67.2238 73.5942 67.176 71.803 65.8832Z" fill="url(#paint37_linear)"/>
<path d="M62.0026 70.5131C61.8362 68.5205 60.4722 67.0077 58.956 67.1343C57.4397 67.2609 56.3454 68.9789 56.5118 70.9715C56.6781 72.9642 58.0422 74.477 59.5584 74.3504C61.0746 74.2238 62.169 72.5058 62.0026 70.5131Z" fill="url(#paint38_linear)"/>
<path d="M79.6607 101.831C80.4295 103.238 83.1018 103.259 85.6295 101.878C88.1572 100.497 89.583 98.2364 88.8142 96.8294C88.0454 95.4225 85.373 95.4017 82.8454 96.783C80.3177 98.1642 78.8919 100.424 79.6607 101.831Z" fill="url(#paint39_linear)"/>
<path d="M89.1112 94.0248C87.7897 93.076 88.1831 90.2668 89.9899 87.7502C91.7967 85.2336 94.3326 83.9625 95.6541 84.9113C96.9756 85.86 96.5822 88.6693 94.7754 91.1859C92.9686 93.7025 90.4327 94.9735 89.1112 94.0248Z" fill="url(#paint40_linear)"/>
<path d="M73.5207 95.9217C74.5816 97.7987 78.4073 97.6439 82.0657 95.5761C85.7241 93.5082 87.8298 90.3103 86.7688 88.4334C85.7079 86.5565 81.8822 86.7112 78.2238 88.7791C74.5654 90.8469 72.4598 94.0448 73.5207 95.9217Z" fill="url(#paint41_linear)"/>
<path d="M68.1069 82.809C68.9495 84.2997 71.8683 84.2445 74.6262 82.6856C77.3841 81.1268 78.9367 78.6546 78.0941 77.1638C77.2514 75.6731 74.3326 75.7283 71.5748 77.2872C68.8169 78.846 67.2642 81.3182 68.1069 82.809Z" fill="url(#paint42_linear)"/>
<path d="M63.9916 76.23C64.8342 77.7208 68.0552 77.4948 71.1857 75.7253C74.3163 73.9558 76.1711 71.3128 75.3284 69.822C74.4858 68.3313 71.2649 68.5573 68.1343 70.3268C65.0037 72.0963 63.149 74.7393 63.9916 76.23Z" fill="url(#paint43_linear)"/>
<path d="M92.1741 80.0275C93.1807 81.1079 92.6833 83.2073 91.0632 84.7165C89.4432 86.2258 87.3139 86.5734 86.3074 85.4929C85.3008 84.4125 85.7982 82.3131 87.4182 80.8039C89.0383 79.2947 91.1676 78.9471 92.1741 80.0275Z" fill="url(#paint44_linear)"/>
<path d="M63.2528 96.3747C63.6594 97.7942 65.7145 98.4508 67.843 97.8412C69.9716 97.2316 71.3676 95.5866 70.961 94.167C70.5544 92.7475 68.4993 92.0909 66.3707 92.7005C64.2422 93.3101 62.8462 94.9551 63.2528 96.3747Z" fill="url(#paint45_linear)"/>
<path d="M77.496 86.2199C78.5919 87.3731 81.2331 86.6423 83.3954 84.5875C85.5576 82.5327 86.422 79.9322 85.3261 78.779C84.2302 77.6258 81.589 78.3566 79.4268 80.4114C77.2646 82.4662 76.4001 85.0667 77.496 86.2199Z" fill="url(#paint46_linear)"/>
<path d="M76.3605 86.8614C76.7833 88.3951 74.7949 90.281 71.9194 91.0738C69.0438 91.8665 66.37 91.2659 65.9472 89.7322C65.5244 88.1986 67.5127 86.3127 70.3883 85.5199C73.2638 84.7272 75.9377 85.3278 76.3605 86.8614Z" fill="url(#paint47_linear)"/>
<path d="M80.9483 67.8546C82.6965 68.323 83.6228 70.5346 83.0173 72.7943C82.4118 75.0541 80.5038 76.5062 78.7557 76.0378C77.0075 75.5694 76.0812 73.3578 76.6866 71.0981C77.2921 68.8383 79.2001 67.3862 80.9483 67.8546Z" fill="url(#paint48_linear)"/>
<path d="M58.8726 79.7334C58.0369 81.3388 59.0417 83.5158 61.1168 84.5961C63.1919 85.6763 65.5516 85.2506 66.3873 83.6453C67.2229 82.0399 66.2182 79.8628 64.143 78.7826C62.0679 77.7024 59.7083 78.1281 58.8726 79.7334Z" fill="url(#paint49_linear)"/>
<path d="M64.9757 90.4188C64.7588 92.0773 63.537 93.285 62.2468 93.1163C60.9565 92.9475 60.0864 91.4662 60.3033 89.8077C60.5202 88.1492 61.742 86.9415 63.0322 87.1102C64.3225 87.279 65.1926 88.7603 64.9757 90.4188Z" fill="url(#paint50_linear)"/>
<path d="M65.6302 65.421C67.5038 64.4072 69.4994 64.4668 70.0877 65.554C70.676 66.6412 69.634 68.3443 67.7605 69.3581C65.887 70.3718 63.8913 70.3122 63.303 69.225C62.7148 68.1378 63.7567 66.4347 65.6302 65.421Z" fill="url(#paint51_linear)"/>
<path d="M71.803 65.8832C70.0118 64.5905 69.2817 62.5424 70.1721 61.3086C71.0625 60.0749 73.2364 60.1227 75.0276 61.4154C76.8187 62.7081 77.5489 64.7563 76.6585 65.99C75.768 67.2238 73.5942 67.176 71.803 65.8832Z" fill="url(#paint52_linear)"/>
<path d="M62.0026 70.5131C61.8362 68.5205 60.4722 67.0077 58.956 67.1343C57.4397 67.2609 56.3454 68.9789 56.5118 70.9715C56.6781 72.9642 58.0422 74.477 59.5584 74.3504C61.0746 74.2238 62.169 72.5058 62.0026 70.5131Z" fill="url(#paint53_linear)"/>
<path d="M79.6607 101.831C80.4295 103.238 83.1018 103.259 85.6295 101.878C88.1572 100.497 89.583 98.2364 88.8142 96.8294C88.0454 95.4225 85.373 95.4017 82.8454 96.783C80.3177 98.1642 78.8919 100.424 79.6607 101.831Z" fill="url(#paint54_linear)"/>
<path d="M89.1112 94.0248C87.7897 93.076 88.1831 90.2668 89.9899 87.7502C91.7967 85.2336 94.3326 83.9625 95.6541 84.9113C96.9756 85.86 96.5822 88.6693 94.7754 91.1859C92.9686 93.7025 90.4327 94.9735 89.1112 94.0248Z" fill="url(#paint55_linear)"/>
<path d="M73.5207 95.9217C74.5816 97.7987 78.4073 97.6439 82.0657 95.5761C85.7241 93.5082 87.8298 90.3103 86.7688 88.4334C85.7079 86.5565 81.8822 86.7112 78.2238 88.7791C74.5654 90.8469 72.4598 94.0448 73.5207 95.9217Z" fill="url(#paint56_linear)"/>
<path d="M68.1069 82.809C68.9495 84.2997 71.8683 84.2445 74.6262 82.6856C77.3841 81.1268 78.9367 78.6546 78.0941 77.1638C77.2514 75.6731 74.3326 75.7283 71.5748 77.2872C68.8169 78.846 67.2642 81.3182 68.1069 82.809Z" fill="url(#paint57_linear)"/>
<path d="M63.9916 76.23C64.8342 77.7208 68.0552 77.4948 71.1857 75.7253C74.3163 73.9558 76.1711 71.3128 75.3284 69.822C74.4858 68.3313 71.2649 68.5573 68.1343 70.3268C65.0037 72.0963 63.149 74.7393 63.9916 76.23Z" fill="url(#paint58_linear)"/>
<path d="M92.1741 80.0275C93.1807 81.1079 92.6833 83.2073 91.0632 84.7165C89.4432 86.2258 87.3139 86.5734 86.3074 85.4929C85.3008 84.4125 85.7982 82.3131 87.4182 80.8039C89.0383 79.2947 91.1676 78.9471 92.1741 80.0275Z" fill="url(#paint59_linear)"/>
<path d="M63.2528 96.3747C63.6594 97.7942 65.7145 98.4508 67.843 97.8412C69.9716 97.2316 71.3676 95.5866 70.961 94.167C70.5544 92.7475 68.4993 92.0909 66.3707 92.7005C64.2422 93.3101 62.8462 94.9551 63.2528 96.3747Z" fill="url(#paint60_linear)"/>
<path d="M77.496 86.2199C78.5919 87.3731 81.2331 86.6423 83.3954 84.5875C85.5576 82.5327 86.422 79.9322 85.3261 78.779C84.2302 77.6258 81.589 78.3566 79.4268 80.4114C77.2646 82.4662 76.4001 85.0667 77.496 86.2199Z" fill="url(#paint61_linear)"/>
<path d="M76.3605 86.8614C76.7833 88.3951 74.7949 90.281 71.9194 91.0738C69.0438 91.8665 66.37 91.2659 65.9472 89.7322C65.5244 88.1986 67.5127 86.3127 70.3883 85.5199C73.2638 84.7272 75.9377 85.3278 76.3605 86.8614Z" fill="url(#paint62_linear)"/>
<path d="M80.9483 67.8546C82.6965 68.323 83.6228 70.5346 83.0173 72.7943C82.4118 75.0541 80.5038 76.5062 78.7557 76.0378C77.0075 75.5694 76.0812 73.3578 76.6866 71.0981C77.2921 68.8383 79.2001 67.3862 80.9483 67.8546Z" fill="url(#paint63_linear)"/>
<path d="M58.8726 79.7334C58.0369 81.3388 59.0417 83.5158 61.1168 84.5961C63.1919 85.6763 65.5516 85.2506 66.3873 83.6453C67.2229 82.0399 66.2182 79.8628 64.143 78.7826C62.0679 77.7024 59.7083 78.1281 58.8726 79.7334Z" fill="url(#paint64_linear)"/>
<path d="M64.9757 90.4188C64.7588 92.0773 63.537 93.285 62.2468 93.1163C60.9565 92.9475 60.0864 91.4662 60.3033 89.8077C60.5202 88.1492 61.742 86.9415 63.0322 87.1102C64.3225 87.279 65.1926 88.7603 64.9757 90.4188Z" fill="url(#paint65_linear)"/>
<path d="M65.6302 65.421C67.5038 64.4072 69.4994 64.4668 70.0877 65.554C70.676 66.6412 69.634 68.3443 67.7605 69.3581C65.887 70.3718 63.8913 70.3122 63.303 69.225C62.7148 68.1378 63.7567 66.4347 65.6302 65.421Z" fill="url(#paint66_linear)"/>
<path d="M71.803 65.8832C70.0118 64.5905 69.2817 62.5424 70.1721 61.3086C71.0625 60.0749 73.2364 60.1227 75.0276 61.4154C76.8187 62.7081 77.5489 64.7563 76.6585 65.99C75.768 67.2238 73.5942 67.176 71.803 65.8832Z" fill="url(#paint67_linear)"/>
<path d="M62.0026 70.5131C61.8362 68.5205 60.4722 67.0077 58.956 67.1343C57.4397 67.2609 56.3454 68.9789 56.5118 70.9715C56.6781 72.9642 58.0422 74.477 59.5584 74.3504C61.0746 74.2238 62.169 72.5058 62.0026 70.5131Z" fill="url(#paint68_linear)"/>
</g>
<g filter="url(#filter4_b)">
<path d="M108.462 97.0347C106.059 102.854 105.914 105.973 101.223 104.037C96.5313 102.1 98.0599 100.461 100.783 93.8648C102.784 89.015 104.439 85.3839 108.269 86.9651C112.1 88.5463 110.408 92.3205 108.462 97.0347Z" fill="url(#paint69_linear)"/>
<path d="M123.842 90.539C122.795 93.1018 116.274 90.011 108.046 86.6482C99.8179 83.2855 92.9988 80.9241 94.0462 78.3613C95.0936 75.7986 104.909 70.8298 113.136 74.1926C121.364 77.5554 124.889 87.9762 123.842 90.539Z" fill="url(#paint70_linear)"/>
</g>
<g filter="url(#filter5_b)">
<path d="M143.871 100.032L145.095 102.273L146.45 104.447L149.12 104.591L151.794 104.594L153.241 102.496L154.56 100.325L153.336 98.0839L151.981 95.9095L149.311 95.7663L146.637 95.7632L145.19 97.8609L143.871 100.032Z" fill="url(#paint71_linear)"/>
<path d="M143.871 100.032L145.095 102.273L146.45 104.447L149.12 104.591L151.794 104.594L153.241 102.496L154.56 100.325L153.336 98.0839L151.981 95.9095L149.311 95.7663L146.637 95.7632L145.19 97.8609L143.871 100.032Z" fill="url(#paint72_linear)"/>
<path d="M143.871 100.032L145.095 102.273L146.45 104.447L149.12 104.591L151.794 104.594L153.241 102.496L154.56 100.325L153.336 98.0839L151.981 95.9095L149.311 95.7663L146.637 95.7632L145.19 97.8609L143.871 100.032Z" fill="url(#paint73_linear)"/>
<path d="M143.871 100.032L145.095 102.273L146.45 104.447L149.12 104.591L151.794 104.594L153.241 102.496L154.56 100.325L153.336 98.0839L151.981 95.9095L149.311 95.7663L146.637 95.7632L145.19 97.8609L143.871 100.032Z" fill="url(#paint74_linear)"/>
<path d="M144.474 80.0139L145.698 82.2548L147.052 84.4292L149.723 84.5724L152.396 84.5755L153.843 82.4778L155.162 80.3065L153.938 78.0656L152.584 75.8912L149.913 75.748L147.24 75.7449L145.793 77.8426L144.474 80.0139Z" fill="url(#paint75_linear)"/>
<path d="M153.203 85.8422L154.427 88.0832L155.782 90.2575L158.452 90.4008L161.126 90.4038L162.573 88.3061L163.892 86.1348L162.668 83.8939L161.313 81.7196L158.643 81.5763L155.969 81.5733L154.522 83.6709L153.203 85.8422Z" fill="url(#paint76_linear)"/>
<path d="M152.902 95.851L154.126 98.0919L155.481 100.266L158.151 100.41L160.825 100.413L162.272 98.3149L163.591 96.1436L162.367 93.9027L161.012 91.7283L158.342 91.5851L155.668 91.582L154.221 93.6797L152.902 95.851Z" fill="url(#paint77_linear)"/>
<path d="M144.173 90.0234L145.396 92.2643L146.751 94.4387L149.422 94.5819L152.095 94.585L153.542 92.4873L154.861 90.316L153.637 88.0751L152.283 85.9007L149.612 85.7575L146.939 85.7544L145.492 87.8521L144.173 90.0234Z" fill="url(#paint78_linear)"/>
<path d="M135.409 85.3064L136.633 87.5473L137.988 89.7216L140.658 89.8649L143.332 89.8679L144.779 87.7703L146.098 85.599L144.874 83.3581L143.519 81.1837L140.849 81.0404L138.175 81.0374L136.728 83.1351L135.409 85.3064Z" fill="url(#paint79_linear)"/>
<path d="M135.108 95.3156L136.332 97.5565L137.687 99.7309L140.357 99.8741L143.031 99.8772L144.478 97.7795L145.797 95.6082L144.573 93.3673L143.218 91.1929L140.548 91.0497L137.874 91.0466L136.427 93.1443L135.108 95.3156Z" fill="url(#paint80_linear)"/>
<path d="M144.474 80.0139L145.698 82.2548L147.052 84.4292L149.723 84.5724L152.396 84.5755L153.843 82.4778L155.162 80.3065L153.938 78.0656L152.584 75.8912L149.913 75.748L147.24 75.7449L145.793 77.8426L144.474 80.0139Z" fill="url(#paint81_linear)"/>
<path d="M153.203 85.8422L154.427 88.0832L155.782 90.2575L158.452 90.4008L161.126 90.4038L162.573 88.3061L163.892 86.1348L162.668 83.8939L161.313 81.7196L158.643 81.5763L155.969 81.5733L154.522 83.6709L153.203 85.8422Z" fill="url(#paint82_linear)"/>
<path d="M152.902 95.851L154.126 98.0919L155.481 100.266L158.151 100.41L160.825 100.413L162.272 98.3149L163.591 96.1436L162.367 93.9027L161.012 91.7283L158.342 91.5851L155.668 91.582L154.221 93.6797L152.902 95.851Z" fill="url(#paint83_linear)"/>
<path d="M144.173 90.0234L145.396 92.2643L146.751 94.4387L149.422 94.5819L152.095 94.585L153.542 92.4873L154.861 90.316L153.637 88.0751L152.283 85.9007L149.612 85.7575L146.939 85.7544L145.492 87.8521L144.173 90.0234Z" fill="url(#paint84_linear)"/>
<path d="M135.409 85.3064L136.633 87.5473L137.988 89.7216L140.658 89.8649L143.332 89.8679L144.779 87.7703L146.098 85.599L144.874 83.3581L143.519 81.1837L140.849 81.0404L138.175 81.0374L136.728 83.1351L135.409 85.3064Z" fill="url(#paint85_linear)"/>
<path d="M135.108 95.3156L136.332 97.5565L137.687 99.7309L140.357 99.8741L143.031 99.8772L144.478 97.7795L145.797 95.6082L144.573 93.3673L143.218 91.1929L140.548 91.0497L137.874 91.0466L136.427 93.1443L135.108 95.3156Z" fill="url(#paint86_linear)"/>
<path d="M144.474 80.0139L145.698 82.2548L147.052 84.4292L149.723 84.5724L152.396 84.5755L153.843 82.4778L155.162 80.3065L153.938 78.0656L152.584 75.8912L149.913 75.748L147.24 75.7449L145.793 77.8426L144.474 80.0139Z" fill="url(#paint87_linear)"/>
<path d="M153.203 85.8422L154.427 88.0832L155.782 90.2575L158.452 90.4008L161.126 90.4038L162.573 88.3061L163.892 86.1348L162.668 83.8939L161.313 81.7196L158.643 81.5763L155.969 81.5733L154.522 83.6709L153.203 85.8422Z" fill="url(#paint88_linear)"/>
<path d="M152.902 95.851L154.126 98.0919L155.481 100.266L158.151 100.41L160.825 100.413L162.272 98.3149L163.591 96.1436L162.367 93.9027L161.012 91.7283L158.342 91.5851L155.668 91.582L154.221 93.6797L152.902 95.851Z" fill="url(#paint89_linear)"/>
<path d="M144.173 90.0234L145.396 92.2643L146.751 94.4387L149.422 94.5819L152.095 94.585L153.542 92.4873L154.861 90.316L153.637 88.0751L152.283 85.9007L149.612 85.7575L146.939 85.7544L145.492 87.8521L144.173 90.0234Z" fill="url(#paint90_linear)"/>
<path d="M135.409 85.3064L136.633 87.5473L137.988 89.7216L140.658 89.8649L143.332 89.8679L144.779 87.7703L146.098 85.599L144.874 83.3581L143.519 81.1837L140.849 81.0404L138.175 81.0374L136.728 83.1351L135.409 85.3064Z" fill="url(#paint91_linear)"/>
<path d="M135.108 95.3156L136.332 97.5565L137.687 99.7309L140.357 99.8741L143.031 99.8772L144.478 97.7795L145.797 95.6082L144.573 93.3673L143.218 91.1929L140.548 91.0497L137.874 91.0466L136.427 93.1443L135.108 95.3156Z" fill="url(#paint92_linear)"/>
<path d="M144.395 90.2465L145.619 92.4874L146.974 94.6618L149.644 94.805L152.318 94.8081L153.765 92.7104L155.084 90.5391L153.86 88.2982L152.505 86.1239L149.835 85.9806L147.161 85.9775L145.714 88.0752L144.395 90.2465Z" fill="url(#paint93_linear)"/>
<path d="M144.173 90.0234L145.396 92.2643L146.751 94.4387L149.422 94.5819L152.095 94.585L153.542 92.4873L154.861 90.316L153.637 88.0751L152.283 85.9007L149.612 85.7575L146.939 85.7544L145.492 87.8521L144.173 90.0234Z" fill="url(#paint94_linear)"/>
<path d="M144.173 90.0234L145.396 92.2643L146.751 94.4387L149.422 94.5819L152.095 94.585L153.542 92.4873L154.861 90.316L153.637 88.0751L152.283 85.9007L149.612 85.7575L146.939 85.7544L145.492 87.8521L144.173 90.0234Z" fill="url(#paint95_linear)"/>
<path d="M135.409 85.3064L136.633 87.5473L137.988 89.7216L140.658 89.8649L143.332 89.8679L144.779 87.7703L146.098 85.599L144.874 83.3581L143.519 81.1837L140.849 81.0404L138.175 81.0374L136.728 83.1351L135.409 85.3064Z" fill="url(#paint96_linear)"/>
<path d="M135.108 95.3156L136.332 97.5565L137.687 99.7309L140.357 99.8741L143.031 99.8772L144.478 97.7795L145.797 95.6082L144.573 93.3673L143.218 91.1929L140.548 91.0497L137.874 91.0466L136.427 93.1443L135.108 95.3156Z" fill="url(#paint97_linear)"/>
</g>
<path d="M21 132L97.227 132.419" stroke="url(#paint98_linear)" stroke-width="3"/>
<path d="M126.773 132.581L203 133" stroke="url(#paint99_linear)" stroke-width="3"/>
<path d="M25.16 124.18C24.488 124.18 23.96 123.988 23.576 123.604C23.192 123.22 23 122.632 23 121.84C23 121.672 23.024 121.396 23.072 121.012C23.936 121.012 24.572 120.616 24.98 119.824C25.388 119.008 25.676 117.724 25.844 115.972C26.036 114.22 26.24 111.28 26.456 107.152C26.48 106.792 26.54 106.54 26.636 106.396C26.756 106.252 27.044 106.156 27.5 106.108C27.956 106.036 28.736 106 29.84 106H35.96V123.28C35.96 123.568 35.912 123.748 35.816 123.82C35.72 123.892 35.336 123.94 34.664 123.964C33.992 123.988 33.068 124 31.892 124V109.312H30.2C30.008 112.984 29.72 115.9 29.336 118.06C28.976 120.196 28.46 121.756 27.788 122.74C27.116 123.7 26.24 124.18 25.16 124.18ZM44.7564 120.472C45.9084 120.472 47.1804 120.136 48.5724 119.464C48.7884 120.184 48.8964 121.072 48.8964 122.128C48.8964 122.824 48.4044 123.376 47.4204 123.784C46.4604 124.168 45.2484 124.36 43.7844 124.36C41.9844 124.36 40.6044 123.748 39.6444 122.524C38.6844 121.276 38.2044 119.056 38.2044 115.864C38.2044 113.128 38.4804 111.004 39.0324 109.492C39.6084 107.98 40.3524 106.96 41.2644 106.432C42.1764 105.904 43.2684 105.64 44.5404 105.64C47.6124 105.64 49.1484 107.596 49.1484 111.508C49.1484 113.596 48.9804 115.3 48.6444 116.62C47.2764 116.908 45.1884 117.076 42.3804 117.124C42.4524 118.348 42.6564 119.212 42.9924 119.716C43.3284 120.22 43.9164 120.472 44.7564 120.472ZM44.0364 109.096C43.4844 109.096 43.0764 109.492 42.8124 110.284C42.5724 111.076 42.4284 112.312 42.3804 113.992C43.7244 113.992 44.6244 113.884 45.0804 113.668C45.2004 113.308 45.2604 112.684 45.2604 111.796C45.2604 110.692 45.1764 109.972 45.0084 109.636C44.8404 109.276 44.5164 109.096 44.0364 109.096ZM55.9425 124.36C54.6465 124.36 53.6145 124.12 52.8465 123.64C52.1025 123.16 51.5385 122.284 51.1545 121.012C50.7945 119.716 50.6145 117.844 50.6145 115.396C50.6145 112.708 50.9145 110.644 51.5145 109.204C52.1385 107.764 52.9065 106.816 53.8185 106.36C54.7545 105.88 55.8225 105.64 57.0225 105.64C57.9105 105.64 58.6305 105.808 59.1825 106.144C59.7345 106.456 60.0105 106.9 60.0105 107.476C60.0105 108.196 59.8905 108.904 59.6505 109.6C59.3385 109.48 58.9665 109.372 58.5345 109.276C58.1265 109.18 57.7425 109.132 57.3825 109.132C56.5905 109.132 55.9545 109.54 55.4745 110.356C55.0185 111.172 54.7905 112.828 54.7905 115.324C54.7905 116.764 54.8625 117.88 55.0065 118.672C55.1505 119.44 55.3905 119.992 55.7265 120.328C56.0865 120.664 56.5905 120.832 57.2385 120.832C57.6225 120.832 58.0305 120.784 58.4625 120.688C58.8945 120.592 59.2545 120.472 59.5425 120.328C59.7585 121.192 59.8665 121.888 59.8665 122.416C59.8665 123.016 59.4945 123.496 58.7505 123.856C58.0305 124.192 57.0945 124.36 55.9425 124.36ZM61.9183 106.72C61.9183 106.456 61.9663 106.288 62.0623 106.216C62.1823 106.12 62.5663 106.06 63.2143 106.036C63.8863 106.012 64.8103 106 65.9863 106V113.272H68.6143V106.72C68.6143 106.456 68.6743 106.288 68.7943 106.216C68.9383 106.12 69.3343 106.06 69.9823 106.036C70.6543 106.012 71.5543 106 72.6823 106V123.28C72.6823 123.544 72.6223 123.724 72.5023 123.82C72.4063 123.892 72.0223 123.94 71.3503 123.964C70.7023 123.988 69.7903 124 68.6143 124V116.692H65.9863V123.28C65.9863 123.544 65.9263 123.724 65.8063 123.82C65.7103 123.892 65.3263 123.94 64.6543 123.964C63.9823 123.988 63.0703 124 61.9183 124V106.72ZM76.4026 107.8C76.4026 107.176 76.4626 106.756 76.5826 106.54C76.7266 106.324 77.0386 106.18 77.5186 106.108C77.9986 106.036 78.8986 106 80.2186 106V112.624H81.4426C83.4346 112.624 84.8866 112.984 85.7986 113.704C86.7106 114.424 87.1666 115.732 87.1666 117.628C87.1666 120.076 86.5306 121.756 85.2586 122.668C83.9866 123.556 82.1266 124 79.6786 124H76.4026V107.8ZM80.9386 120.832C81.4906 120.832 81.9106 120.592 82.1986 120.112C82.4866 119.632 82.6306 118.864 82.6306 117.808C82.6306 117.136 82.5706 116.644 82.4506 116.332C82.3306 116.02 82.1626 115.828 81.9466 115.756C81.7306 115.66 81.4186 115.612 81.0106 115.612C80.7946 115.612 80.6146 115.624 80.4706 115.648C80.3266 115.672 80.2426 115.684 80.2186 115.684V120.796C80.2426 120.796 80.3146 120.808 80.4346 120.832C80.5546 120.832 80.7226 120.832 80.9386 120.832ZM88.8946 107.764C88.8946 107.164 89.0026 106.756 89.2186 106.54C89.4346 106.3 89.7946 106.156 90.2986 106.108C90.8026 106.036 91.6906 106 92.9626 106V123.28C92.9626 123.544 92.9026 123.724 92.7826 123.82C92.6626 123.892 92.2666 123.94 91.5946 123.964C90.9226 123.988 90.0226 124 88.8946 124V107.764ZM101.463 120.472C102.615 120.472 103.887 120.136 105.279 119.464C105.495 120.184 105.603 121.072 105.603 122.128C105.603 122.824 105.111 123.376 104.127 123.784C103.167 124.168 101.955 124.36 100.491 124.36C98.6914 124.36 97.3114 123.748 96.3514 122.524C95.3914 121.276 94.9114 119.056 94.9114 115.864C94.9114 113.128 95.1874 111.004 95.7394 109.492C96.3154 107.98 97.0594 106.96 97.9714 106.432C98.8834 105.904 99.9754 105.64 101.247 105.64C104.319 105.64 105.855 107.596 105.855 111.508C105.855 113.596 105.687 115.3 105.351 116.62C103.983 116.908 101.895 117.076 99.0874 117.124C99.1594 118.348 99.3634 119.212 99.6994 119.716C100.035 120.22 100.623 120.472 101.463 120.472ZM100.743 109.096C100.191 109.096 99.7834 109.492 99.5194 110.284C99.2794 111.076 99.1354 112.312 99.0874 113.992C100.431 113.992 101.331 113.884 101.787 113.668C101.907 113.308 101.967 112.684 101.967 111.796C101.967 110.692 101.883 109.972 101.715 109.636C101.547 109.276 101.223 109.096 100.743 109.096ZM114.796 131.092C114.076 131.092 113.572 130.972 113.284 130.732C112.996 130.492 112.852 130.024 112.852 129.328V107.044C113.548 106.612 114.364 106.276 115.3 106.036C116.26 105.772 117.22 105.64 118.18 105.64C120.076 105.64 121.516 106.168 122.5 107.224C123.484 108.28 123.976 110.188 123.976 112.948C123.976 115.996 123.772 118.36 123.364 120.04C122.956 121.72 122.404 122.86 121.708 123.46C121.036 124.06 120.22 124.36 119.26 124.36C118.204 124.36 117.4 124.132 116.848 123.676V130.768C116.272 130.984 115.588 131.092 114.796 131.092ZM117.892 120.832C118.204 120.832 118.468 120.664 118.684 120.328C118.924 119.968 119.116 119.224 119.26 118.096C119.428 116.968 119.512 115.336 119.512 113.2C119.512 112.048 119.452 111.184 119.332 110.608C119.236 110.008 119.08 109.6 118.864 109.384C118.648 109.168 118.348 109.06 117.964 109.06C117.58 109.06 117.208 109.204 116.848 109.492V120.148C117.184 120.604 117.532 120.832 117.892 120.832ZM130.574 124.36C129.542 124.36 128.654 124.228 127.91 123.964C127.19 123.7 126.602 123.16 126.146 122.344C125.69 121.504 125.462 120.304 125.462 118.744C125.462 116.488 125.846 114.94 126.614 114.1C127.382 113.236 128.39 112.804 129.638 112.804C129.998 112.804 130.394 112.852 130.826 112.948C131.282 113.02 131.654 113.152 131.942 113.344V110.86C131.942 110.38 131.822 110.032 131.582 109.816C131.366 109.6 130.982 109.492 130.43 109.492C129.758 109.492 129.014 109.564 128.198 109.708C127.382 109.852 126.674 110.032 126.074 110.248C125.714 109.552 125.534 108.784 125.534 107.944C125.534 107.704 125.582 107.464 125.678 107.224C125.774 106.984 125.894 106.804 126.038 106.684C126.35 106.444 126.998 106.216 127.982 106C128.966 105.76 130.106 105.64 131.402 105.64C133.058 105.64 134.222 105.976 134.894 106.648C135.59 107.296 135.938 108.424 135.938 110.032V111.724C135.938 117.604 135.878 121.432 135.758 123.208C134.462 123.976 132.734 124.36 130.574 124.36ZM130.862 121.084C131.318 121.084 131.654 120.964 131.87 120.724C131.918 120.172 131.942 118.612 131.942 116.044C131.702 115.828 131.378 115.72 130.97 115.72C130.538 115.72 130.214 115.936 129.998 116.368C129.782 116.776 129.674 117.532 129.674 118.636C129.674 119.524 129.758 120.16 129.926 120.544C130.094 120.904 130.406 121.084 130.862 121.084ZM140.325 129.652C139.629 129.652 139.113 129.628 138.777 129.58C138.465 129.532 138.249 129.424 138.129 129.256C138.009 129.088 137.949 128.836 137.949 128.5V120.256H139.425C139.929 119.416 140.313 117.976 140.577 115.936C140.865 113.872 141.069 110.956 141.189 107.188C141.213 106.804 141.261 106.54 141.333 106.396C141.405 106.228 141.573 106.12 141.837 106.072C142.101 106.024 142.557 106 143.205 106H150.585V120.256H152.385V128.5C152.385 128.836 152.325 129.088 152.205 129.256C152.085 129.424 151.857 129.532 151.521 129.58C151.209 129.628 150.693 129.652 149.973 129.652C149.613 128.284 149.349 127.228 149.181 126.484C149.037 125.764 148.929 124.936 148.857 124H141.441C141.369 124.936 141.249 125.764 141.081 126.484C140.937 127.228 140.685 128.284 140.325 129.652ZM146.589 120.256V109.312H144.717C144.573 112.576 144.381 114.988 144.141 116.548C143.901 118.084 143.577 119.32 143.169 120.256H146.589ZM159.205 124.36C157.789 124.36 156.685 124.132 155.893 123.676C155.101 123.196 154.501 122.284 154.093 120.94C153.709 119.596 153.517 117.604 153.517 114.964C153.517 108.748 155.509 105.64 159.493 105.64C160.837 105.64 161.905 105.916 162.697 106.468C163.513 106.996 164.113 107.92 164.497 109.24C164.905 110.56 165.109 112.42 165.109 114.82C165.109 118.204 164.617 120.64 163.633 122.128C162.673 123.616 161.197 124.36 159.205 124.36ZM159.313 121.048C159.601 121.048 159.841 120.916 160.033 120.652C160.225 120.364 160.381 119.776 160.501 118.888C160.645 117.976 160.717 116.656 160.717 114.928C160.717 113.176 160.681 111.892 160.609 111.076C160.537 110.236 160.405 109.672 160.213 109.384C160.021 109.096 159.733 108.952 159.349 108.952C158.893 108.952 158.533 109.36 158.269 110.176C158.029 110.992 157.909 112.576 157.909 114.928C157.909 116.728 157.957 118.072 158.053 118.96C158.173 119.824 158.329 120.388 158.521 120.652C158.713 120.916 158.977 121.048 159.313 121.048ZM171.888 124.36C170.592 124.36 169.56 124.12 168.792 123.64C168.048 123.16 167.484 122.284 167.1 121.012C166.74 119.716 166.56 117.844 166.56 115.396C166.56 112.708 166.86 110.644 167.46 109.204C168.084 107.764 168.852 106.816 169.764 106.36C170.7 105.88 171.768 105.64 172.968 105.64C173.856 105.64 174.576 105.808 175.128 106.144C175.68 106.456 175.956 106.9 175.956 107.476C175.956 108.196 175.836 108.904 175.596 109.6C175.284 109.48 174.912 109.372 174.48 109.276C174.072 109.18 173.688 109.132 173.328 109.132C172.536 109.132 171.9 109.54 171.42 110.356C170.964 111.172 170.736 112.828 170.736 115.324C170.736 116.764 170.808 117.88 170.952 118.672C171.096 119.44 171.336 119.992 171.672 120.328C172.032 120.664 172.536 120.832 173.184 120.832C173.568 120.832 173.976 120.784 174.408 120.688C174.84 120.592 175.2 120.472 175.488 120.328C175.704 121.192 175.812 121.888 175.812 122.416C175.812 123.016 175.44 123.496 174.696 123.856C173.976 124.192 173.04 124.36 171.888 124.36ZM180.06 109.384H176.64C176.64 108.28 176.652 107.524 176.676 107.116C176.7 106.684 176.76 106.396 176.856 106.252C176.976 106.084 177.18 106 177.468 106H187.404C187.404 107.104 187.392 107.872 187.368 108.304C187.344 108.736 187.272 109.024 187.152 109.168C187.056 109.312 186.876 109.384 186.612 109.384H184.056V123.28C184.056 123.544 183.996 123.724 183.876 123.82C183.78 123.892 183.396 123.94 182.724 123.964C182.076 123.988 181.188 124 180.06 124V109.384ZM194.187 124.36C192.147 124.36 190.731 123.916 189.939 123.028C189.147 122.116 188.751 120.748 188.751 118.924V106.72C188.751 106.456 188.811 106.288 188.931 106.216C189.051 106.12 189.447 106.06 190.119 106.036C190.815 106.012 191.739 106 192.891 106V119.176C192.891 119.8 192.975 120.256 193.143 120.544C193.311 120.808 193.647 120.94 194.151 120.94C194.727 120.94 195.183 120.784 195.519 120.472V106.72C195.519 106.456 195.567 106.288 195.663 106.216C195.783 106.12 196.167 106.06 196.815 106.036C197.487 106.012 198.387 106 199.515 106V122.992C198.867 123.376 198.063 123.7 197.103 123.964C196.167 124.228 195.195 124.36 194.187 124.36Z" fill="#719C7B"/>
<g filter="url(#filter6_b)">
<circle r="6.57372" transform="matrix(-0.519823 -0.854274 -0.854274 0.519823 126.033 98.0329)" fill="url(#paint100_linear)"/>
</g>
<g filter="url(#filter7_b)">
<path d="M129.215 95.8483C129.973 96.9985 130.811 97.4804 131.614 96.9524C132.416 96.4243 131.283 96.4568 130.265 94.9329C129.479 93.7549 129.944 92.722 129.142 93.25C128.339 93.7781 128.406 94.6181 129.215 95.8483Z" fill="url(#paint101_linear)"/>
</g>
<defs>
<filter id="filter0_b" x="55.5676" y="128.15" width="149.433" height="11.0235" filterUnits="userSpaceOnUse" color-interpolation-filters="sRGB">
<feFlood flood-opacity="0" result="BackgroundImageFix"/>
<feGaussianBlur in="BackgroundImage" stdDeviation="2"/>
<feComposite in2="SourceAlpha" operator="in" result="effect1_backgroundBlur"/>
<feBlend mode="normal" in="SourceGraphic" in2="effect1_backgroundBlur" result="shape"/>
</filter>
<filter id="filter1_b" x="16.9998" y="128.143" width="149.433" height="11.0235" filterUnits="userSpaceOnUse" color-interpolation-filters="sRGB">
<feFlood flood-opacity="0" result="BackgroundImageFix"/>
<feGaussianBlur in="BackgroundImage" stdDeviation="2"/>
<feComposite in2="SourceAlpha" operator="in" result="effect1_backgroundBlur"/>
<feBlend mode="normal" in="SourceGraphic" in2="effect1_backgroundBlur" result="shape"/>
</filter>
<filter id="filter2_i" x="0" y="0" width="222" height="226" filterUnits="userSpaceOnUse" color-interpolation-filters="sRGB">
<feFlood flood-opacity="0" result="BackgroundImageFix"/>
<feBlend mode="normal" in="SourceGraphic" in2="BackgroundImageFix" result="shape"/>
<feColorMatrix in="SourceAlpha" type="matrix" values="0 0 0 0 0 0 0 0 0 0 0 0 0 0 0 0 0 0 127 0" result="hardAlpha"/>
<feOffset dy="4"/>
<feGaussianBlur stdDeviation="2"/>
<feComposite in2="hardAlpha" operator="arithmetic" k2="-1" k3="1"/>
<feColorMatrix type="matrix" values="0 0 0 0 0 0 0 0 0 0 0 0 0 0 0 0 0 0 0.25 0"/>
<feBlend mode="normal" in2="shape" result="effect1_innerShadow"/>
</filter>
<filter id="filter3_b" x="52.2104" y="53.6721" width="49.8365" height="54.7067" filterUnits="userSpaceOnUse" color-interpolation-filters="sRGB">
<feFlood flood-opacity="0" result="BackgroundImageFix"/>
<feGaussianBlur in="BackgroundImage" stdDeviation="2"/>
<feComposite in2="SourceAlpha" operator="in" result="effect1_backgroundBlur"/>
<feBlend mode="normal" in="SourceGraphic" in2="effect1_backgroundBlur" result="shape"/>
</filter>
<filter id="filter4_b" x="89.1406" y="64.1038" width="42.8938" height="45.5014" filterUnits="userSpaceOnUse" color-interpolation-filters="sRGB">
<feFlood flood-opacity="0" result="BackgroundImageFix"/>
<feGaussianBlur in="BackgroundImage" stdDeviation="2"/>
<feComposite in2="SourceAlpha" operator="in" result="effect1_backgroundBlur"/>
<feBlend mode="normal" in="SourceGraphic" in2="effect1_backgroundBlur" result="shape"/>
</filter>
<filter id="filter5_b" x="131.108" y="71.7449" width="36.7833" height="36.8489" filterUnits="userSpaceOnUse" color-interpolation-filters="sRGB">
<feFlood flood-opacity="0" result="BackgroundImageFix"/>
<feGaussianBlur in="BackgroundImage" stdDeviation="2"/>
<feComposite in2="SourceAlpha" operator="in" result="effect1_backgroundBlur"/>
<feBlend mode="normal" in="SourceGraphic" in2="effect1_backgroundBlur" result="shape"/>
</filter>
<filter id="filter6_b" x="113" y="85" width="26.0659" height="26.0659" filterUnits="userSpaceOnUse" color-interpolation-filters="sRGB">
<feFlood flood-opacity="0" result="BackgroundImageFix"/>
<feGaussianBlur in="BackgroundImage" stdDeviation="2"/>
<feComposite in2="SourceAlpha" operator="in" result="effect1_backgroundBlur"/>
<feBlend mode="normal" in="SourceGraphic" in2="effect1_backgroundBlur" result="shape"/>
</filter>
<filter id="filter7_b" x="124" y="89" width="11.9692" height="12.72" filterUnits="userSpaceOnUse" color-interpolation-filters="sRGB">
<feFlood flood-opacity="0" result="BackgroundImageFix"/>
<feGaussianBlur in="BackgroundImage" stdDeviation="2"/>
<feComposite in2="SourceAlpha" operator="in" result="effect1_backgroundBlur"/>
<feBlend mode="normal" in="SourceGraphic" in2="effect1_backgroundBlur" result="shape"/>
</filter>
<linearGradient id="paint0_linear" x1="89.1859" y1="133.655" x2="89.1857" y2="134.655" gradientUnits="userSpaceOnUse">
<stop offset="0.0260417" stop-color="#719C7B"/>
<stop offset="0.28125" stop-color="#719C7B"/>
<stop offset="0.479167" stop-color="#719C7B"/>
</linearGradient>
<linearGradient id="paint1_linear" x1="171.382" y1="133.668" x2="171.382" y2="134.668" gradientUnits="userSpaceOnUse">
<stop offset="0.0260417" stop-color="#719C7B"/>
<stop offset="0.28125" stop-color="#719C7B"/>
<stop offset="0.479167" stop-color="#719C7B"/>
</linearGradient>
<linearGradient id="paint2_linear" x1="50.618" y1="133.648" x2="50.6178" y2="134.648" gradientUnits="userSpaceOnUse">
<stop offset="0.0260417" stop-color="#719C7B"/>
<stop offset="0.28125" stop-color="#719C7B"/>
<stop offset="0.479167" stop-color="#719C7B"/>
</linearGradient>
<linearGradient id="paint3_linear" x1="132.814" y1="133.662" x2="132.814" y2="134.662" gradientUnits="userSpaceOnUse">
<stop offset="0.0260417" stop-color="#719C7B"/>
<stop offset="0.28125" stop-color="#719C7B"/>
<stop offset="0.479167" stop-color="#719C7B"/>
</linearGradient>
<linearGradient id="paint4_linear" x1="82.8454" y1="96.783" x2="85.6295" y2="101.878" gradientUnits="userSpaceOnUse">
<stop stop-color="#322921"/>
<stop offset="0.354167" stop-color="#846B55"/>
<stop offset="0.473958" stop-color="#B49274"/>
<stop offset="0.802083" stop-color="#B49274"/>
</linearGradient>
<linearGradient id="paint5_linear" x1="94.7754" y1="91.1859" x2="89.9899" y2="87.7502" gradientUnits="userSpaceOnUse">
<stop stop-color="#322921"/>
<stop offset="0.354167" stop-color="#846B55"/>
<stop offset="0.473958" stop-color="#B49274"/>
<stop offset="0.802083" stop-color="#B49274"/>
</linearGradient>
<linearGradient id="paint6_linear" x1="72.3655" y1="98.0943" x2="72.3579" y2="103.985" gradientUnits="userSpaceOnUse">
<stop stop-color="#322921"/>
<stop offset="0.354167" stop-color="#846B55"/>
<stop offset="0.473958" stop-color="#B49274"/>
<stop offset="0.802083" stop-color="#B49274"/>
</linearGradient>
<linearGradient id="paint7_linear" x1="78.2238" y1="88.7791" x2="82.0657" y2="95.5761" gradientUnits="userSpaceOnUse">
<stop stop-color="#322921"/>
<stop offset="0.354167" stop-color="#846B55"/>
<stop offset="0.473958" stop-color="#B49274"/>
<stop offset="0.802083" stop-color="#B49274"/>
</linearGradient>
<linearGradient id="paint8_linear" x1="71.5748" y1="77.2872" x2="74.6262" y2="82.6856" gradientUnits="userSpaceOnUse">
<stop stop-color="#322921"/>
<stop offset="0.354167" stop-color="#846B55"/>
<stop offset="0.473958" stop-color="#B49274"/>
<stop offset="0.802083" stop-color="#B49274"/>
</linearGradient>
<linearGradient id="paint9_linear" x1="68.1343" y1="70.3268" x2="71.1857" y2="75.7253" gradientUnits="userSpaceOnUse">
<stop stop-color="#322921"/>
<stop offset="0.354167" stop-color="#846B55"/>
<stop offset="0.473958" stop-color="#B49274"/>
<stop offset="0.802083" stop-color="#B49274"/>
</linearGradient>
<linearGradient id="paint10_linear" x1="87.4182" y1="80.8039" x2="91.0632" y2="84.7165" gradientUnits="userSpaceOnUse">
<stop stop-color="#322921"/>
<stop offset="0.354167" stop-color="#846B55"/>
<stop offset="0.473958" stop-color="#B49274"/>
<stop offset="0.802083" stop-color="#B49274"/>
</linearGradient>
<linearGradient id="paint11_linear" x1="66.3707" y1="92.7005" x2="67.843" y2="97.8412" gradientUnits="userSpaceOnUse">
<stop stop-color="#322921"/>
<stop offset="0.354167" stop-color="#846B55"/>
<stop offset="0.473958" stop-color="#B49274"/>
<stop offset="0.802083" stop-color="#B49274"/>
</linearGradient>
<linearGradient id="paint12_linear" x1="79.4268" y1="80.4114" x2="83.3954" y2="84.5875" gradientUnits="userSpaceOnUse">
<stop stop-color="#322921"/>
<stop offset="0.354167" stop-color="#846B55"/>
<stop offset="0.473958" stop-color="#B49274"/>
<stop offset="0.802083" stop-color="#B49274"/>
</linearGradient>
<linearGradient id="paint13_linear" x1="70.3883" y1="85.5199" x2="71.9194" y2="91.0738" gradientUnits="userSpaceOnUse">
<stop stop-color="#322921"/>
<stop offset="0.354167" stop-color="#846B55"/>
<stop offset="0.473958" stop-color="#B49274"/>
<stop offset="0.802083" stop-color="#B49274"/>
</linearGradient>
<linearGradient id="paint14_linear" x1="76.6866" y1="71.0981" x2="83.0173" y2="72.7943" gradientUnits="userSpaceOnUse">
<stop stop-color="#322921"/>
<stop offset="0.354167" stop-color="#846B55"/>
<stop offset="0.473958" stop-color="#B49274"/>
<stop offset="0.802083" stop-color="#B49274"/>
</linearGradient>
<linearGradient id="paint15_linear" x1="64.143" y1="78.7826" x2="61.1168" y2="84.5961" gradientUnits="userSpaceOnUse">
<stop stop-color="#322921"/>
<stop offset="0.354167" stop-color="#846B55"/>
<stop offset="0.473958" stop-color="#B49274"/>
<stop offset="0.802083" stop-color="#B49274"/>
</linearGradient>
<linearGradient id="paint16_linear" x1="83.9434" y1="74.5879" x2="89.5693" y2="77.0453" gradientUnits="userSpaceOnUse">
<stop stop-color="#322921"/>
<stop offset="0.354167" stop-color="#846B55"/>
<stop offset="0.473958" stop-color="#B49274"/>
<stop offset="0.802083" stop-color="#B49274"/>
</linearGradient>
<linearGradient id="paint17_linear" x1="63.0322" y1="87.1102" x2="62.2467" y2="93.1163" gradientUnits="userSpaceOnUse">
<stop stop-color="#322921"/>
<stop offset="0.354167" stop-color="#846B55"/>
<stop offset="0.473958" stop-color="#B49274"/>
<stop offset="0.802083" stop-color="#B49274"/>
</linearGradient>
<linearGradient id="paint18_linear" x1="66.9799" y1="59.7393" x2="60.9752" y2="63.0232" gradientUnits="userSpaceOnUse">
<stop stop-color="#322921"/>
<stop offset="0.354167" stop-color="#846B55"/>
<stop offset="0.473958" stop-color="#B49274"/>
<stop offset="0.802083" stop-color="#B49274"/>
</linearGradient>
<linearGradient id="paint19_linear" x1="63.303" y1="69.225" x2="70.0877" y2="65.554" gradientUnits="userSpaceOnUse">
<stop stop-color="#322921"/>
<stop offset="0.354167" stop-color="#846B55"/>
<stop offset="0.473958" stop-color="#B49274"/>
<stop offset="0.802083" stop-color="#B49274"/>
</linearGradient>
<linearGradient id="paint20_linear" x1="76.6585" y1="65.99" x2="70.1721" y2="61.3086" gradientUnits="userSpaceOnUse">
<stop stop-color="#322921"/>
<stop offset="0.354167" stop-color="#846B55"/>
<stop offset="0.473958" stop-color="#B49274"/>
<stop offset="0.802083" stop-color="#B49274"/>
</linearGradient>
<linearGradient id="paint21_linear" x1="59.5584" y1="74.3504" x2="58.956" y2="67.1343" gradientUnits="userSpaceOnUse">
<stop stop-color="#322921"/>
<stop offset="0.354167" stop-color="#846B55"/>
<stop offset="0.473958" stop-color="#B49274"/>
<stop offset="0.802083" stop-color="#B49274"/>
</linearGradient>
<linearGradient id="paint22_linear" x1="82.8454" y1="96.783" x2="85.6295" y2="101.878" gradientUnits="userSpaceOnUse">
<stop stop-color="#322921"/>
<stop offset="0.354167" stop-color="#846B55"/>
<stop offset="0.473958" stop-color="#B49274"/>
<stop offset="0.802083" stop-color="#B49274"/>
</linearGradient>
<linearGradient id="paint23_linear" x1="94.7754" y1="91.1859" x2="89.9899" y2="87.7502" gradientUnits="userSpaceOnUse">
<stop stop-color="#322921"/>
<stop offset="0.354167" stop-color="#846B55"/>
<stop offset="0.473958" stop-color="#B49274"/>
<stop offset="0.802083" stop-color="#B49274"/>
</linearGradient>
<linearGradient id="paint24_linear" x1="72.3655" y1="98.0943" x2="72.3579" y2="103.985" gradientUnits="userSpaceOnUse">
<stop stop-color="#322921"/>
<stop offset="0.354167" stop-color="#846B55"/>
<stop offset="0.473958" stop-color="#B49274"/>
<stop offset="0.802083" stop-color="#B49274"/>
</linearGradient>
<linearGradient id="paint25_linear" x1="78.2238" y1="88.7791" x2="82.0657" y2="95.5761" gradientUnits="userSpaceOnUse">
<stop stop-color="#322921"/>
<stop offset="0.354167" stop-color="#846B55"/>
<stop offset="0.473958" stop-color="#B49274"/>
<stop offset="0.802083" stop-color="#B49274"/>
</linearGradient>
<linearGradient id="paint26_linear" x1="71.5748" y1="77.2872" x2="74.6262" y2="82.6856" gradientUnits="userSpaceOnUse">
<stop stop-color="#322921"/>
<stop offset="0.354167" stop-color="#846B55"/>
<stop offset="0.473958" stop-color="#B49274"/>
<stop offset="0.802083" stop-color="#B49274"/>
</linearGradient>
<linearGradient id="paint27_linear" x1="68.1343" y1="70.3268" x2="71.1857" y2="75.7253" gradientUnits="userSpaceOnUse">
<stop stop-color="#322921"/>
<stop offset="0.354167" stop-color="#846B55"/>
<stop offset="0.473958" stop-color="#B49274"/>
<stop offset="0.802083" stop-color="#B49274"/>
</linearGradient>
<linearGradient id="paint28_linear" x1="87.4182" y1="80.8039" x2="91.0632" y2="84.7165" gradientUnits="userSpaceOnUse">
<stop stop-color="#322921"/>
<stop offset="0.354167" stop-color="#846B55"/>
<stop offset="0.473958" stop-color="#B49274"/>
<stop offset="0.802083" stop-color="#B49274"/>
</linearGradient>
<linearGradient id="paint29_linear" x1="66.3707" y1="92.7005" x2="67.843" y2="97.8412" gradientUnits="userSpaceOnUse">
<stop stop-color="#322921"/>
<stop offset="0.354167" stop-color="#846B55"/>
<stop offset="0.473958" stop-color="#B49274"/>
<stop offset="0.802083" stop-color="#B49274"/>
</linearGradient>
<linearGradient id="paint30_linear" x1="79.4268" y1="80.4114" x2="83.3954" y2="84.5875" gradientUnits="userSpaceOnUse">
<stop stop-color="#322921"/>
<stop offset="0.354167" stop-color="#846B55"/>
<stop offset="0.473958" stop-color="#B49274"/>
<stop offset="0.802083" stop-color="#B49274"/>
</linearGradient>
<linearGradient id="paint31_linear" x1="70.3883" y1="85.5199" x2="71.9194" y2="91.0738" gradientUnits="userSpaceOnUse">
<stop stop-color="#322921"/>
<stop offset="0.354167" stop-color="#846B55"/>
<stop offset="0.473958" stop-color="#B49274"/>
<stop offset="0.802083" stop-color="#B49274"/>
</linearGradient>
<linearGradient id="paint32_linear" x1="76.6866" y1="71.0981" x2="83.0173" y2="72.7943" gradientUnits="userSpaceOnUse">
<stop stop-color="#322921"/>
<stop offset="0.354167" stop-color="#846B55"/>
<stop offset="0.473958" stop-color="#B49274"/>
<stop offset="0.802083" stop-color="#B49274"/>
</linearGradient>
<linearGradient id="paint33_linear" x1="64.143" y1="78.7826" x2="61.1168" y2="84.5961" gradientUnits="userSpaceOnUse">
<stop stop-color="#322921"/>
<stop offset="0.354167" stop-color="#846B55"/>
<stop offset="0.473958" stop-color="#B49274"/>
<stop offset="0.802083" stop-color="#B49274"/>
</linearGradient>
<linearGradient id="paint34_linear" x1="83.9434" y1="74.5879" x2="89.5693" y2="77.0453" gradientUnits="userSpaceOnUse">
<stop stop-color="#322921"/>
<stop offset="0.354167" stop-color="#846B55"/>
<stop offset="0.473958" stop-color="#B49274"/>
<stop offset="0.802083" stop-color="#B49274"/>
</linearGradient>
<linearGradient id="paint35_linear" x1="63.0322" y1="87.1102" x2="62.2467" y2="93.1163" gradientUnits="userSpaceOnUse">
<stop stop-color="#322921"/>
<stop offset="0.354167" stop-color="#846B55"/>
<stop offset="0.473958" stop-color="#B49274"/>
<stop offset="0.802083" stop-color="#B49274"/>
</linearGradient>
<linearGradient id="paint36_linear" x1="63.303" y1="69.225" x2="70.0877" y2="65.554" gradientUnits="userSpaceOnUse">
<stop stop-color="#322921"/>
<stop offset="0.354167" stop-color="#846B55"/>
<stop offset="0.473958" stop-color="#B49274"/>
<stop offset="0.802083" stop-color="#B49274"/>
</linearGradient>
<linearGradient id="paint37_linear" x1="76.6585" y1="65.99" x2="70.1721" y2="61.3086" gradientUnits="userSpaceOnUse">
<stop stop-color="#322921"/>
<stop offset="0.354167" stop-color="#846B55"/>
<stop offset="0.473958" stop-color="#B49274"/>
<stop offset="0.802083" stop-color="#B49274"/>
</linearGradient>
<linearGradient id="paint38_linear" x1="59.5584" y1="74.3504" x2="58.956" y2="67.1343" gradientUnits="userSpaceOnUse">
<stop stop-color="#322921"/>
<stop offset="0.354167" stop-color="#846B55"/>
<stop offset="0.473958" stop-color="#B49274"/>
<stop offset="0.802083" stop-color="#B49274"/>
</linearGradient>
<linearGradient id="paint39_linear" x1="82.8454" y1="96.783" x2="85.6295" y2="101.878" gradientUnits="userSpaceOnUse">
<stop stop-color="#322921"/>
<stop offset="0.354167" stop-color="#846B55"/>
<stop offset="0.473958" stop-color="#B49274"/>
<stop offset="0.802083" stop-color="#B49274"/>
</linearGradient>
<linearGradient id="paint40_linear" x1="94.7754" y1="91.1859" x2="89.9899" y2="87.7502" gradientUnits="userSpaceOnUse">
<stop stop-color="#322921"/>
<stop offset="0.354167" stop-color="#846B55"/>
<stop offset="0.473958" stop-color="#B49274"/>
<stop offset="0.802083" stop-color="#B49274"/>
</linearGradient>
<linearGradient id="paint41_linear" x1="78.2238" y1="88.7791" x2="82.0657" y2="95.5761" gradientUnits="userSpaceOnUse">
<stop stop-color="#322921"/>
<stop offset="0.354167" stop-color="#846B55"/>
<stop offset="0.473958" stop-color="#B49274"/>
<stop offset="0.802083" stop-color="#B49274"/>
</linearGradient>
<linearGradient id="paint42_linear" x1="71.5748" y1="77.2872" x2="74.6262" y2="82.6856" gradientUnits="userSpaceOnUse">
<stop stop-color="#322921"/>
<stop offset="0.354167" stop-color="#846B55"/>
<stop offset="0.473958" stop-color="#B49274"/>
<stop offset="0.802083" stop-color="#B49274"/>
</linearGradient>
<linearGradient id="paint43_linear" x1="68.1343" y1="70.3268" x2="71.1857" y2="75.7253" gradientUnits="userSpaceOnUse">
<stop stop-color="#322921"/>
<stop offset="0.354167" stop-color="#846B55"/>
<stop offset="0.473958" stop-color="#B49274"/>
<stop offset="0.802083" stop-color="#B49274"/>
</linearGradient>
<linearGradient id="paint44_linear" x1="87.4182" y1="80.8039" x2="91.0632" y2="84.7165" gradientUnits="userSpaceOnUse">
<stop stop-color="#322921"/>
<stop offset="0.354167" stop-color="#846B55"/>
<stop offset="0.473958" stop-color="#B49274"/>
<stop offset="0.802083" stop-color="#B49274"/>
</linearGradient>
<linearGradient id="paint45_linear" x1="66.3707" y1="92.7005" x2="67.843" y2="97.8412" gradientUnits="userSpaceOnUse">
<stop stop-color="#322921"/>
<stop offset="0.354167" stop-color="#846B55"/>
<stop offset="0.473958" stop-color="#B49274"/>
<stop offset="0.802083" stop-color="#B49274"/>
</linearGradient>
<linearGradient id="paint46_linear" x1="79.4268" y1="80.4114" x2="83.3954" y2="84.5875" gradientUnits="userSpaceOnUse">
<stop stop-color="#322921"/>
<stop offset="0.354167" stop-color="#846B55"/>
<stop offset="0.473958" stop-color="#B49274"/>
<stop offset="0.802083" stop-color="#B49274"/>
</linearGradient>
<linearGradient id="paint47_linear" x1="70.3883" y1="85.5199" x2="71.9194" y2="91.0738" gradientUnits="userSpaceOnUse">
<stop stop-color="#322921"/>
<stop offset="0.354167" stop-color="#846B55"/>
<stop offset="0.473958" stop-color="#B49274"/>
<stop offset="0.802083" stop-color="#B49274"/>
</linearGradient>
<linearGradient id="paint48_linear" x1="76.6866" y1="71.0981" x2="83.0173" y2="72.7943" gradientUnits="userSpaceOnUse">
<stop stop-color="#322921"/>
<stop offset="0.354167" stop-color="#846B55"/>
<stop offset="0.473958" stop-color="#B49274"/>
<stop offset="0.802083" stop-color="#B49274"/>
</linearGradient>
<linearGradient id="paint49_linear" x1="64.143" y1="78.7826" x2="61.1168" y2="84.5961" gradientUnits="userSpaceOnUse">
<stop stop-color="#322921"/>
<stop offset="0.354167" stop-color="#846B55"/>
<stop offset="0.473958" stop-color="#B49274"/>
<stop offset="0.802083" stop-color="#B49274"/>
</linearGradient>
<linearGradient id="paint50_linear" x1="63.0322" y1="87.1102" x2="62.2467" y2="93.1163" gradientUnits="userSpaceOnUse">
<stop stop-color="#322921"/>
<stop offset="0.354167" stop-color="#846B55"/>
<stop offset="0.473958" stop-color="#B49274"/>
<stop offset="0.802083" stop-color="#B49274"/>
</linearGradient>
<linearGradient id="paint51_linear" x1="63.303" y1="69.225" x2="70.0877" y2="65.554" gradientUnits="userSpaceOnUse">
<stop stop-color="#322921"/>
<stop offset="0.354167" stop-color="#846B55"/>
<stop offset="0.473958" stop-color="#B49274"/>
<stop offset="0.802083" stop-color="#B49274"/>
</linearGradient>
<linearGradient id="paint52_linear" x1="76.6585" y1="65.99" x2="70.1721" y2="61.3086" gradientUnits="userSpaceOnUse">
<stop stop-color="#322921"/>
<stop offset="0.354167" stop-color="#846B55"/>
<stop offset="0.473958" stop-color="#B49274"/>
<stop offset="0.802083" stop-color="#B49274"/>
</linearGradient>
<linearGradient id="paint53_linear" x1="59.5584" y1="74.3504" x2="58.956" y2="67.1343" gradientUnits="userSpaceOnUse">
<stop stop-color="#322921"/>
<stop offset="0.354167" stop-color="#846B55"/>
<stop offset="0.473958" stop-color="#B49274"/>
<stop offset="0.802083" stop-color="#B49274"/>
</linearGradient>
<linearGradient id="paint54_linear" x1="82.8454" y1="96.783" x2="85.6295" y2="101.878" gradientUnits="userSpaceOnUse">
<stop stop-color="#322921"/>
<stop offset="0.354167" stop-color="#846B55"/>
<stop offset="0.473958" stop-color="#B49274"/>
<stop offset="0.802083" stop-color="#B49274"/>
</linearGradient>
<linearGradient id="paint55_linear" x1="94.7754" y1="91.1859" x2="89.9899" y2="87.7502" gradientUnits="userSpaceOnUse">
<stop stop-color="#322921"/>
<stop offset="0.354167" stop-color="#846B55"/>
<stop offset="0.473958" stop-color="#B49274"/>
<stop offset="0.802083" stop-color="#B49274"/>
</linearGradient>
<linearGradient id="paint56_linear" x1="78.2238" y1="88.7791" x2="82.0657" y2="95.5761" gradientUnits="userSpaceOnUse">
<stop stop-color="#322921"/>
<stop offset="0.354167" stop-color="#846B55"/>
<stop offset="0.473958" stop-color="#B49274"/>
<stop offset="0.802083" stop-color="#B49274"/>
</linearGradient>
<linearGradient id="paint57_linear" x1="71.5748" y1="77.2872" x2="74.6262" y2="82.6856" gradientUnits="userSpaceOnUse">
<stop stop-color="#322921"/>
<stop offset="0.354167" stop-color="#846B55"/>
<stop offset="0.473958" stop-color="#B49274"/>
<stop offset="0.802083" stop-color="#B49274"/>
</linearGradient>
<linearGradient id="paint58_linear" x1="68.1343" y1="70.3268" x2="71.1857" y2="75.7253" gradientUnits="userSpaceOnUse">
<stop stop-color="#322921"/>
<stop offset="0.354167" stop-color="#846B55"/>
<stop offset="0.473958" stop-color="#B49274"/>
<stop offset="0.802083" stop-color="#B49274"/>
</linearGradient>
<linearGradient id="paint59_linear" x1="87.4182" y1="80.8039" x2="91.0632" y2="84.7165" gradientUnits="userSpaceOnUse">
<stop stop-color="#322921"/>
<stop offset="0.354167" stop-color="#846B55"/>
<stop offset="0.473958" stop-color="#B49274"/>
<stop offset="0.802083" stop-color="#B49274"/>
</linearGradient>
<linearGradient id="paint60_linear" x1="66.3707" y1="92.7005" x2="67.843" y2="97.8412" gradientUnits="userSpaceOnUse">
<stop stop-color="#322921"/>
<stop offset="0.354167" stop-color="#846B55"/>
<stop offset="0.473958" stop-color="#B49274"/>
<stop offset="0.802083" stop-color="#B49274"/>
</linearGradient>
<linearGradient id="paint61_linear" x1="79.4268" y1="80.4114" x2="83.3954" y2="84.5875" gradientUnits="userSpaceOnUse">
<stop stop-color="#322921"/>
<stop offset="0.354167" stop-color="#846B55"/>
<stop offset="0.473958" stop-color="#B49274"/>
<stop offset="0.802083" stop-color="#B49274"/>
</linearGradient>
<linearGradient id="paint62_linear" x1="70.3883" y1="85.5199" x2="71.9194" y2="91.0738" gradientUnits="userSpaceOnUse">
<stop stop-color="#322921"/>
<stop offset="0.354167" stop-color="#846B55"/>
<stop offset="0.473958" stop-color="#B49274"/>
<stop offset="0.802083" stop-color="#B49274"/>
</linearGradient>
<linearGradient id="paint63_linear" x1="76.6866" y1="71.0981" x2="83.0173" y2="72.7943" gradientUnits="userSpaceOnUse">
<stop stop-color="#322921"/>
<stop offset="0.354167" stop-color="#846B55"/>
<stop offset="0.473958" stop-color="#B49274"/>
<stop offset="0.802083" stop-color="#B49274"/>
</linearGradient>
<linearGradient id="paint64_linear" x1="64.143" y1="78.7826" x2="61.1168" y2="84.5961" gradientUnits="userSpaceOnUse">
<stop stop-color="#322921"/>
<stop offset="0.354167" stop-color="#846B55"/>
<stop offset="0.473958" stop-color="#B49274"/>
<stop offset="0.802083" stop-color="#B49274"/>
</linearGradient>
<linearGradient id="paint65_linear" x1="63.0322" y1="87.1102" x2="62.2467" y2="93.1163" gradientUnits="userSpaceOnUse">
<stop stop-color="#322921"/>
<stop offset="0.354167" stop-color="#846B55"/>
<stop offset="0.473958" stop-color="#B49274"/>
<stop offset="0.802083" stop-color="#B49274"/>
</linearGradient>
<linearGradient id="paint66_linear" x1="63.303" y1="69.225" x2="70.0877" y2="65.554" gradientUnits="userSpaceOnUse">
<stop stop-color="#322921"/>
<stop offset="0.354167" stop-color="#846B55"/>
<stop offset="0.473958" stop-color="#B49274"/>
<stop offset="0.802083" stop-color="#B49274"/>
</linearGradient>
<linearGradient id="paint67_linear" x1="76.6585" y1="65.99" x2="70.1721" y2="61.3086" gradientUnits="userSpaceOnUse">
<stop stop-color="#322921"/>
<stop offset="0.354167" stop-color="#846B55"/>
<stop offset="0.473958" stop-color="#B49274"/>
<stop offset="0.802083" stop-color="#B49274"/>
</linearGradient>
<linearGradient id="paint68_linear" x1="59.5584" y1="74.3504" x2="58.956" y2="67.1343" gradientUnits="userSpaceOnUse">
<stop stop-color="#322921"/>
<stop offset="0.354167" stop-color="#846B55"/>
<stop offset="0.473958" stop-color="#B49274"/>
<stop offset="0.802083" stop-color="#B49274"/>
</linearGradient>
<linearGradient id="paint69_linear" x1="108.167" y1="86.923" x2="101.12" y2="103.994" gradientUnits="userSpaceOnUse">
<stop offset="0.00520833" stop-color="#B5A394"/>
<stop offset="1" stop-color="#F4DFCD" stop-opacity="0.93"/>
</linearGradient>
<linearGradient id="paint70_linear" x1="112.066" y1="75.4027" x2="106.02" y2="90.9642" gradientUnits="userSpaceOnUse">
<stop stop-color="#78634E"/>
<stop offset="0.576119" stop-color="#927B66" stop-opacity="0.73"/>
<stop offset="1" stop-color="#AA917A" stop-opacity="0.53"/>
</linearGradient>
<linearGradient id="paint71_linear" x1="143.871" y1="100.032" x2="154.561" y2="100.263" gradientUnits="userSpaceOnUse">
<stop offset="0.015625" stop-color="#867445" stop-opacity="0.92"/>
<stop offset="0.182292" stop-color="#DBB75C" stop-opacity="0.962169"/>
<stop offset="0.40625" stop-color="#F9CC59" stop-opacity="0.927778"/>
<stop offset="0.619792" stop-color="#FCD268" stop-opacity="0.850141"/>
<stop offset="0.838542" stop-color="#FED773" stop-opacity="0.79"/>
</linearGradient>
<linearGradient id="paint72_linear" x1="143.871" y1="100.032" x2="154.561" y2="100.263" gradientUnits="userSpaceOnUse">
<stop offset="0.015625" stop-color="#867445" stop-opacity="0.92"/>
<stop offset="0.182292" stop-color="#DBB75C" stop-opacity="0.962169"/>
<stop offset="0.40625" stop-color="#F9CC59" stop-opacity="0.927778"/>
<stop offset="0.619792" stop-color="#FCD268" stop-opacity="0.850141"/>
<stop offset="0.838542" stop-color="#FED773" stop-opacity="0.79"/>
</linearGradient>
<linearGradient id="paint73_linear" x1="143.871" y1="100.032" x2="154.561" y2="100.263" gradientUnits="userSpaceOnUse">
<stop offset="0.015625" stop-color="#867445" stop-opacity="0.92"/>
<stop offset="0.182292" stop-color="#DBB75C" stop-opacity="0.962169"/>
<stop offset="0.40625" stop-color="#F9CC59" stop-opacity="0.927778"/>
<stop offset="0.619792" stop-color="#FCD268" stop-opacity="0.850141"/>
<stop offset="0.838542" stop-color="#FED773" stop-opacity="0.79"/>
</linearGradient>
<linearGradient id="paint74_linear" x1="143.871" y1="100.032" x2="154.561" y2="100.263" gradientUnits="userSpaceOnUse">
<stop offset="0.015625" stop-color="#867445" stop-opacity="0.92"/>
<stop offset="0.182292" stop-color="#DBB75C" stop-opacity="0.962169"/>
<stop offset="0.40625" stop-color="#F9CC59" stop-opacity="0.927778"/>
<stop offset="0.619792" stop-color="#FCD268" stop-opacity="0.850141"/>
<stop offset="0.838542" stop-color="#FED773" stop-opacity="0.79"/>
</linearGradient>
<linearGradient id="paint75_linear" x1="144.474" y1="80.0139" x2="155.163" y2="80.2447" gradientUnits="userSpaceOnUse">
<stop offset="0.015625" stop-color="#867445" stop-opacity="0.92"/>
<stop offset="0.182292" stop-color="#DBB75C" stop-opacity="0.962169"/>
<stop offset="0.40625" stop-color="#F9CC59" stop-opacity="0.927778"/>
<stop offset="0.619792" stop-color="#FCD268" stop-opacity="0.850141"/>
<stop offset="0.838542" stop-color="#FED773" stop-opacity="0.79"/>
</linearGradient>
<linearGradient id="paint76_linear" x1="153.203" y1="85.8422" x2="163.893" y2="86.073" gradientUnits="userSpaceOnUse">
<stop offset="0.015625" stop-color="#867445" stop-opacity="0.92"/>
<stop offset="0.182292" stop-color="#DBB75C" stop-opacity="0.962169"/>
<stop offset="0.40625" stop-color="#F9CC59" stop-opacity="0.927778"/>
<stop offset="0.619792" stop-color="#FCD268" stop-opacity="0.850141"/>
<stop offset="0.838542" stop-color="#FED773" stop-opacity="0.79"/>
</linearGradient>
<linearGradient id="paint77_linear" x1="152.902" y1="95.851" x2="163.592" y2="96.0818" gradientUnits="userSpaceOnUse">
<stop offset="0.015625" stop-color="#867445" stop-opacity="0.92"/>
<stop offset="0.182292" stop-color="#DBB75C" stop-opacity="0.962169"/>
<stop offset="0.40625" stop-color="#F9CC59" stop-opacity="0.927778"/>
<stop offset="0.619792" stop-color="#FCD268" stop-opacity="0.850141"/>
<stop offset="0.838542" stop-color="#FED773" stop-opacity="0.79"/>
</linearGradient>
<linearGradient id="paint78_linear" x1="144.173" y1="90.0234" x2="154.862" y2="90.2542" gradientUnits="userSpaceOnUse">
<stop offset="0.015625" stop-color="#867445" stop-opacity="0.92"/>
<stop offset="0.182292" stop-color="#DBB75C" stop-opacity="0.962169"/>
<stop offset="0.40625" stop-color="#F9CC59" stop-opacity="0.927778"/>
<stop offset="0.619792" stop-color="#FCD268" stop-opacity="0.850141"/>
<stop offset="0.838542" stop-color="#FED773" stop-opacity="0.79"/>
</linearGradient>
<linearGradient id="paint79_linear" x1="135.409" y1="85.3064" x2="146.099" y2="85.5371" gradientUnits="userSpaceOnUse">
<stop offset="0.015625" stop-color="#867445" stop-opacity="0.92"/>
<stop offset="0.182292" stop-color="#DBB75C" stop-opacity="0.962169"/>
<stop offset="0.40625" stop-color="#F9CC59" stop-opacity="0.927778"/>
<stop offset="0.619792" stop-color="#FCD268" stop-opacity="0.850141"/>
<stop offset="0.838542" stop-color="#FED773" stop-opacity="0.79"/>
</linearGradient>
<linearGradient id="paint80_linear" x1="135.108" y1="95.3156" x2="145.798" y2="95.5464" gradientUnits="userSpaceOnUse">
<stop offset="0.015625" stop-color="#867445" stop-opacity="0.92"/>
<stop offset="0.182292" stop-color="#DBB75C" stop-opacity="0.962169"/>
<stop offset="0.40625" stop-color="#F9CC59" stop-opacity="0.927778"/>
<stop offset="0.619792" stop-color="#FCD268" stop-opacity="0.850141"/>
<stop offset="0.838542" stop-color="#FED773" stop-opacity="0.79"/>
</linearGradient>
<linearGradient id="paint81_linear" x1="144.474" y1="80.0139" x2="155.163" y2="80.2447" gradientUnits="userSpaceOnUse">
<stop offset="0.015625" stop-color="#867445" stop-opacity="0.92"/>
<stop offset="0.182292" stop-color="#DBB75C" stop-opacity="0.962169"/>
<stop offset="0.40625" stop-color="#F9CC59" stop-opacity="0.927778"/>
<stop offset="0.619792" stop-color="#FCD268" stop-opacity="0.850141"/>
<stop offset="0.838542" stop-color="#FED773" stop-opacity="0.79"/>
</linearGradient>
<linearGradient id="paint82_linear" x1="153.203" y1="85.8422" x2="163.893" y2="86.073" gradientUnits="userSpaceOnUse">
<stop offset="0.015625" stop-color="#867445" stop-opacity="0.92"/>
<stop offset="0.182292" stop-color="#DBB75C" stop-opacity="0.962169"/>
<stop offset="0.40625" stop-color="#F9CC59" stop-opacity="0.927778"/>
<stop offset="0.619792" stop-color="#FCD268" stop-opacity="0.850141"/>
<stop offset="0.838542" stop-color="#FED773" stop-opacity="0.79"/>
</linearGradient>
<linearGradient id="paint83_linear" x1="152.902" y1="95.851" x2="163.592" y2="96.0818" gradientUnits="userSpaceOnUse">
<stop offset="0.015625" stop-color="#867445" stop-opacity="0.92"/>
<stop offset="0.182292" stop-color="#DBB75C" stop-opacity="0.962169"/>
<stop offset="0.40625" stop-color="#F9CC59" stop-opacity="0.927778"/>
<stop offset="0.619792" stop-color="#FCD268" stop-opacity="0.850141"/>
<stop offset="0.838542" stop-color="#FED773" stop-opacity="0.79"/>
</linearGradient>
<linearGradient id="paint84_linear" x1="144.173" y1="90.0234" x2="154.862" y2="90.2542" gradientUnits="userSpaceOnUse">
<stop offset="0.015625" stop-color="#867445" stop-opacity="0.92"/>
<stop offset="0.182292" stop-color="#DBB75C" stop-opacity="0.962169"/>
<stop offset="0.40625" stop-color="#F9CC59" stop-opacity="0.927778"/>
<stop offset="0.619792" stop-color="#FCD268" stop-opacity="0.850141"/>
<stop offset="0.838542" stop-color="#FED773" stop-opacity="0.79"/>
</linearGradient>
<linearGradient id="paint85_linear" x1="135.409" y1="85.3064" x2="146.099" y2="85.5371" gradientUnits="userSpaceOnUse">
<stop offset="0.015625" stop-color="#867445" stop-opacity="0.92"/>
<stop offset="0.182292" stop-color="#DBB75C" stop-opacity="0.962169"/>
<stop offset="0.40625" stop-color="#F9CC59" stop-opacity="0.927778"/>
<stop offset="0.619792" stop-color="#FCD268" stop-opacity="0.850141"/>
<stop offset="0.838542" stop-color="#FED773" stop-opacity="0.79"/>
</linearGradient>
<linearGradient id="paint86_linear" x1="135.108" y1="95.3156" x2="145.798" y2="95.5464" gradientUnits="userSpaceOnUse">
<stop offset="0.015625" stop-color="#867445" stop-opacity="0.92"/>
<stop offset="0.182292" stop-color="#DBB75C" stop-opacity="0.962169"/>
<stop offset="0.40625" stop-color="#F9CC59" stop-opacity="0.927778"/>
<stop offset="0.619792" stop-color="#FCD268" stop-opacity="0.850141"/>
<stop offset="0.838542" stop-color="#FED773" stop-opacity="0.79"/>
</linearGradient>
<linearGradient id="paint87_linear" x1="144.474" y1="80.0139" x2="155.163" y2="80.2447" gradientUnits="userSpaceOnUse">
<stop offset="0.015625" stop-color="#867445" stop-opacity="0.92"/>
<stop offset="0.182292" stop-color="#DBB75C" stop-opacity="0.962169"/>
<stop offset="0.40625" stop-color="#F9CC59" stop-opacity="0.927778"/>
<stop offset="0.619792" stop-color="#FCD268" stop-opacity="0.850141"/>
<stop offset="0.838542" stop-color="#FED773" stop-opacity="0.79"/>
</linearGradient>
<linearGradient id="paint88_linear" x1="153.203" y1="85.8422" x2="163.893" y2="86.073" gradientUnits="userSpaceOnUse">
<stop offset="0.015625" stop-color="#867445" stop-opacity="0.92"/>
<stop offset="0.182292" stop-color="#DBB75C" stop-opacity="0.962169"/>
<stop offset="0.40625" stop-color="#F9CC59" stop-opacity="0.927778"/>
<stop offset="0.619792" stop-color="#FCD268" stop-opacity="0.850141"/>
<stop offset="0.838542" stop-color="#FED773" stop-opacity="0.79"/>
</linearGradient>
<linearGradient id="paint89_linear" x1="152.902" y1="95.851" x2="163.592" y2="96.0818" gradientUnits="userSpaceOnUse">
<stop offset="0.015625" stop-color="#867445" stop-opacity="0.92"/>
<stop offset="0.182292" stop-color="#DBB75C" stop-opacity="0.962169"/>
<stop offset="0.40625" stop-color="#F9CC59" stop-opacity="0.927778"/>
<stop offset="0.619792" stop-color="#FCD268" stop-opacity="0.850141"/>
<stop offset="0.838542" stop-color="#FED773" stop-opacity="0.79"/>
</linearGradient>
<linearGradient id="paint90_linear" x1="144.173" y1="90.0234" x2="154.862" y2="90.2542" gradientUnits="userSpaceOnUse">
<stop offset="0.015625" stop-color="#867445" stop-opacity="0.92"/>
<stop offset="0.182292" stop-color="#DBB75C" stop-opacity="0.962169"/>
<stop offset="0.40625" stop-color="#F9CC59" stop-opacity="0.927778"/>
<stop offset="0.619792" stop-color="#FCD268" stop-opacity="0.850141"/>
<stop offset="0.838542" stop-color="#FED773" stop-opacity="0.79"/>
</linearGradient>
<linearGradient id="paint91_linear" x1="135.409" y1="85.3064" x2="146.099" y2="85.5371" gradientUnits="userSpaceOnUse">
<stop offset="0.015625" stop-color="#867445" stop-opacity="0.92"/>
<stop offset="0.182292" stop-color="#DBB75C" stop-opacity="0.962169"/>
<stop offset="0.40625" stop-color="#F9CC59" stop-opacity="0.927778"/>
<stop offset="0.619792" stop-color="#FCD268" stop-opacity="0.850141"/>
<stop offset="0.838542" stop-color="#FED773" stop-opacity="0.79"/>
</linearGradient>
<linearGradient id="paint92_linear" x1="135.108" y1="95.3156" x2="145.798" y2="95.5464" gradientUnits="userSpaceOnUse">
<stop offset="0.015625" stop-color="#867445" stop-opacity="0.92"/>
<stop offset="0.182292" stop-color="#DBB75C" stop-opacity="0.962169"/>
<stop offset="0.40625" stop-color="#F9CC59" stop-opacity="0.927778"/>
<stop offset="0.619792" stop-color="#FCD268" stop-opacity="0.850141"/>
<stop offset="0.838542" stop-color="#FED773" stop-opacity="0.79"/>
</linearGradient>
<linearGradient id="paint93_linear" x1="144.395" y1="90.2465" x2="155.085" y2="90.4773" gradientUnits="userSpaceOnUse">
<stop offset="0.015625" stop-color="#867445" stop-opacity="0.92"/>
<stop offset="0.182292" stop-color="#DBB75C" stop-opacity="0.962169"/>
<stop offset="0.40625" stop-color="#F9CC59" stop-opacity="0.927778"/>
<stop offset="0.619792" stop-color="#FCD268" stop-opacity="0.850141"/>
<stop offset="0.838542" stop-color="#FED773" stop-opacity="0.79"/>
</linearGradient>
<linearGradient id="paint94_linear" x1="144.173" y1="90.0234" x2="154.862" y2="90.2542" gradientUnits="userSpaceOnUse">
<stop offset="0.015625" stop-color="#867445" stop-opacity="0.92"/>
<stop offset="0.182292" stop-color="#DBB75C" stop-opacity="0.962169"/>
<stop offset="0.40625" stop-color="#F9CC59" stop-opacity="0.927778"/>
<stop offset="0.619792" stop-color="#FCD268" stop-opacity="0.850141"/>
<stop offset="0.838542" stop-color="#FED773" stop-opacity="0.79"/>
</linearGradient>
<linearGradient id="paint95_linear" x1="144.173" y1="90.0234" x2="154.862" y2="90.2542" gradientUnits="userSpaceOnUse">
<stop offset="0.015625" stop-color="#867445" stop-opacity="0.92"/>
<stop offset="0.182292" stop-color="#DBB75C" stop-opacity="0.962169"/>
<stop offset="0.40625" stop-color="#F9CC59" stop-opacity="0.927778"/>
<stop offset="0.619792" stop-color="#FCD268" stop-opacity="0.850141"/>
<stop offset="0.838542" stop-color="#FED773" stop-opacity="0.79"/>
</linearGradient>
<linearGradient id="paint96_linear" x1="135.409" y1="85.3064" x2="146.099" y2="85.5371" gradientUnits="userSpaceOnUse">
<stop offset="0.015625" stop-color="#867445" stop-opacity="0.92"/>
<stop offset="0.182292" stop-color="#DBB75C" stop-opacity="0.962169"/>
<stop offset="0.40625" stop-color="#F9CC59" stop-opacity="0.927778"/>
<stop offset="0.619792" stop-color="#FCD268" stop-opacity="0.850141"/>
<stop offset="0.838542" stop-color="#FED773" stop-opacity="0.79"/>
</linearGradient>
<linearGradient id="paint97_linear" x1="135.108" y1="95.3156" x2="145.798" y2="95.5464" gradientUnits="userSpaceOnUse">
<stop offset="0.015625" stop-color="#867445" stop-opacity="0.92"/>
<stop offset="0.182292" stop-color="#DBB75C" stop-opacity="0.962169"/>
<stop offset="0.40625" stop-color="#F9CC59" stop-opacity="0.927778"/>
<stop offset="0.619792" stop-color="#FCD268" stop-opacity="0.850141"/>
<stop offset="0.838542" stop-color="#FED773" stop-opacity="0.79"/>
</linearGradient>
<linearGradient id="paint98_linear" x1="59.1135" y1="132.21" x2="59.108" y2="133.21" gradientUnits="userSpaceOnUse">
<stop offset="0.0260417" stop-color="#719C7B"/>
<stop offset="0.28125" stop-color="#719C7B"/>
<stop offset="0.479167" stop-color="#719C7B"/>
</linearGradient>
<linearGradient id="paint99_linear" x1="164.886" y1="132.79" x2="164.881" y2="133.79" gradientUnits="userSpaceOnUse">
<stop offset="0.0260417" stop-color="#719C7B"/>
<stop offset="0.28125" stop-color="#719C7B"/>
<stop offset="0.479167" stop-color="#719C7B"/>
</linearGradient>
<linearGradient id="paint100_linear" x1="6.57372" y1="0" x2="6.57372" y2="13.1474" gradientUnits="userSpaceOnUse">
<stop offset="0.0299737" stop-color="#E82F5C"/>
<stop offset="0.233087" stop-color="#EA4A67"/>
<stop offset="0.442181" stop-color="#E95671"/>
<stop offset="0.734375" stop-color="#EC7288"/>
<stop offset="0.929399" stop-color="#EC748A" stop-opacity="0.6"/>
</linearGradient>
<linearGradient id="paint101_linear" x1="129.138" y1="96.3028" x2="131.582" y2="94.6683" gradientUnits="userSpaceOnUse">
<stop stop-color="#86293A"/>
<stop offset="0.866395" stop-color="#CF3A55" stop-opacity="0.79"/>
</linearGradient>
</defs>
</svg>
